<svg width="174" height="60" viewBox="0 0 174 60" fill="none" xmlns="http://www.w3.org/2000/svg">
<rect x="0.5" y="0.5" width="173" height="59" rx="11.5" fill="white" fill-opacity="0.4"/>
<rect x="0.5" y="0.5" width="173" height="59" rx="11.5" stroke="#CCCCCC"/>
<circle cx="43" cy="30" r="20" fill="#FFDFA4" fill-opacity="0.8"/>
<path d="M42.3895 18.3008H43.6104C43.9259 18.3007 44.2421 18.3007 44.5108 18.3314C44.8178 18.3666 45.1628 18.4503 45.4884 18.6857C45.8139 18.9208 46.0019 19.222 46.132 19.5023L46.7902 21.3786C46.8668 21.5684 46.9986 21.7303 47.1679 21.8434L47.4615 22.0129C47.6635 22.1117 47.8923 22.1401 48.1121 22.094L49.3242 21.7524L49.3252 21.7521C49.652 21.6593 50.0208 21.5545 50.305 21.5094C50.6291 21.4579 51.0077 21.4475 51.4046 21.609C51.8014 21.7705 52.0653 22.0422 52.2617 22.3052C52.4339 22.536 53.1498 23.7792 53.3196 24.0742C53.4788 24.3504 53.6379 24.6267 53.7462 24.8768C53.8698 25.1624 53.9699 25.5054 53.9277 25.9074C53.8855 26.3094 53.7163 26.6241 53.536 26.8778C53.3781 27.0999 53.165 27.3369 52.9521 27.5738L51.9033 28.7467C51.8141 28.8742 51.6964 29.1908 51.6964 29.4985C51.6964 29.8067 51.8141 30.1231 51.9033 30.2506C52.1163 30.4875 53.3781 31.8974 53.536 32.1195C53.7163 32.3732 53.8855 32.6879 53.9277 33.0899C53.9699 33.4919 53.8698 33.8349 53.7462 34.1205C53.6379 34.3706 53.4788 34.6469 53.3197 34.9231C53.3197 34.9231 52.4339 36.4613 52.2617 36.6921C52.0654 36.9551 51.8014 37.2268 51.4046 37.3883C51.0077 37.5498 50.6291 37.5394 50.305 37.4879C50.0208 37.4428 49.6952 37.3503 49.3685 37.2574L48.1121 36.9032C47.8923 36.8571 47.6634 36.8856 47.4614 36.9844L47.1678 37.1539C46.9986 37.2671 46.8668 37.4289 46.7902 37.6186L46.4455 38.6489C46.4455 38.6489 46.246 39.2495 46.132 39.4951C46.0019 39.7754 45.8139 40.0766 45.4884 40.3117C45.1628 40.547 44.8178 40.6308 44.5108 40.666C44.2421 40.6967 43.9259 40.6967 43.6104 40.6966H42.3896C42.0741 40.6967 41.7579 40.6967 41.4892 40.666C41.1822 40.6308 40.8372 40.5471 40.5116 40.3117C40.1861 40.0766 39.9981 39.7754 39.868 39.4951C39.754 39.2495 39.5408 38.6078 39.5408 38.6078C39.3634 38.0743 39.6519 37.498 40.185 37.3205C40.7182 37.143 41.2943 37.4316 41.4716 37.9651C41.5907 38.3233 41.6546 38.5104 41.7136 38.6377C42.0903 38.6377 44.1407 38.6591 44.2795 38.6432L44.8836 36.9065C45.1168 36.2982 45.5382 35.7803 46.0865 35.4288L46.513 35.1827C47.1528 34.8537 47.8881 34.7619 48.5891 34.9237C48.9784 35.0342 50.4749 35.4534 50.6241 35.4771L51.8777 33.2995C51.7958 33.1843 51.6639 33.0351 51.4098 32.7525L50.3189 31.5293C49.8964 30.9941 49.6615 30.1942 49.6615 29.4985C49.6615 28.8031 49.8965 28.0031 50.3189 27.468L51.8777 25.6978C51.6755 25.3466 50.722 23.6449 50.6313 23.5235L48.589 24.0736C47.8882 24.2353 47.153 24.1435 46.5132 23.8147L46.0867 23.5686C45.5383 23.2171 45.1168 22.6992 44.8836 22.0908C44.7645 21.7327 44.3454 20.487 44.2864 20.3597C43.9097 20.3597 41.8592 20.3383 41.7205 20.3542L41.1164 22.0908C40.8832 22.6992 40.4617 23.2171 39.9133 23.5686L39.4867 23.8147C38.847 24.1435 38.1118 24.2353 37.411 24.0736C37.0217 23.9631 35.5251 23.5439 35.3759 23.5202L34.1223 25.6978C34.2042 25.813 35.427 27.1853 35.6811 27.468C36.1035 28.0031 36.3385 28.8031 36.3385 29.4985C36.3385 30.1942 36.1036 30.9941 35.6811 31.5293L34.592 32.7505L34.5902 32.7525C34.3361 33.0351 34.1722 33.2324 34.0904 33.3476C34.0103 33.8833 33.5217 34.2659 32.9779 34.2087C32.419 34.15 32.0136 33.6491 32.0723 33.0899C32.1145 32.6879 32.2837 32.3732 32.464 32.1195C32.6219 31.8974 32.835 31.6604 33.0479 31.4235L33.0479 31.4235L34.0967 30.2506C34.1859 30.1231 34.3036 29.8067 34.3036 29.4985C34.3036 29.1908 34.1859 28.8742 34.0967 28.7467C33.8837 28.5098 32.6219 27.0999 32.464 26.8778C32.2837 26.6241 32.1145 26.3094 32.0723 25.9074C32.0301 25.5054 32.1302 25.1624 32.2538 24.8768C32.362 24.6267 32.5212 24.3504 32.6803 24.0742L33.2273 23.1245C33.3971 22.8295 33.5661 22.536 33.7383 22.3052C33.9347 22.0422 34.1986 21.7705 34.5953 21.609C34.9923 21.4475 35.3709 21.4579 35.695 21.5094C35.9792 21.5545 36.3482 21.6593 36.6749 21.7522L37.8879 22.094C38.1076 22.1401 38.3365 22.1117 38.5385 22.0129L38.8321 21.8434C39.0014 21.7303 39.1332 21.5684 39.2098 21.3786L39.5408 20.3896C39.6405 20.0894 39.754 19.7479 39.868 19.5023C39.9981 19.222 40.1861 18.9208 40.5116 18.6857C40.8372 18.4503 41.1821 18.3666 41.4892 18.3314C41.7579 18.3007 42.0741 18.3007 42.3895 18.3008Z" fill="#085C44"/>
<path d="M46.6134 33.0698C45.8699 33.8133 44.5512 33.8793 42.5879 33.8843C42.1601 33.8854 41.9462 33.8859 41.7555 33.9652C41.5648 34.0445 41.4147 34.1946 41.1145 34.4948L36.2851 39.3249C35.4978 40.1122 34.2214 40.1122 33.4342 39.3249C32.6469 38.5377 32.6469 37.2613 33.4342 36.4741L38.2645 31.6435C38.5646 31.3434 38.7147 31.1933 38.7939 31.0026C38.8732 30.8119 38.8737 30.598 38.8748 30.1703C38.8798 28.2081 38.9459 26.8889 39.6894 26.1455C40.5372 25.2979 40.9116 25.3322 44.667 25.3322C45.0299 25.3307 45.2126 25.7696 44.956 26.0262L43.0224 27.9599C42.5316 28.4508 42.5302 29.2465 43.0211 29.7373C43.512 30.2281 44.3078 30.2281 44.7987 29.7374L46.7328 27.8041C46.9895 27.5476 47.4284 27.7302 47.4269 28.0931C47.4269 31.8479 47.4612 32.2222 46.6134 33.0698Z" fill="#085C44"/>
<path d="M76.36 37V23H85.48V25.18H79.06V28.92H84.2V31.04H79.06V37H76.36ZM87.3938 37V22.6H90.0938V37H87.3938ZM97.5663 37.24C96.5529 37.24 95.6529 37.0267 94.8663 36.6C94.0929 36.16 93.4863 35.5533 93.0463 34.78C92.6063 34.0067 92.3863 33.1133 92.3863 32.1C92.3863 31.06 92.5996 30.14 93.0263 29.34C93.4663 28.54 94.0729 27.9133 94.8463 27.46C95.6329 27.0067 96.5396 26.78 97.5663 26.78C98.5663 26.78 99.4396 27 100.186 27.44C100.933 27.8667 101.52 28.4533 101.946 29.2C102.373 29.9333 102.586 30.7733 102.586 31.72C102.586 31.8533 102.58 32 102.566 32.16C102.566 32.32 102.553 32.4933 102.526 32.68H94.3263V31.02H99.8463C99.8063 30.3933 99.5729 29.8933 99.1463 29.52C98.7329 29.1467 98.2129 28.96 97.5863 28.96C97.1196 28.96 96.6929 29.0667 96.3063 29.28C95.9196 29.48 95.6129 29.7933 95.3863 30.22C95.1596 30.6333 95.0463 31.16 95.0463 31.8V32.38C95.0463 32.9133 95.1529 33.38 95.3663 33.78C95.5796 34.18 95.8729 34.4933 96.2463 34.72C96.6329 34.9333 97.0663 35.04 97.5463 35.04C98.0396 35.04 98.4529 34.9333 98.7863 34.72C99.1196 34.5067 99.3663 34.22 99.5263 33.86H102.286C102.1 34.5 101.786 35.0733 101.346 35.58C100.906 36.0867 100.366 36.4933 99.7263 36.8C99.0863 37.0933 98.3663 37.24 97.5663 37.24ZM103.075 37L106.715 32L103.075 27.02H105.995L108.435 30.46L110.875 27.02H113.775L110.155 32L113.775 37H110.875L108.435 33.56L105.995 37H103.075ZM115.521 37V27.02H118.221V37H115.521ZM116.881 25.6C116.387 25.6 115.987 25.46 115.681 25.18C115.374 24.8867 115.221 24.52 115.221 24.08C115.221 23.64 115.374 23.28 115.681 23C115.987 22.7067 116.387 22.56 116.881 22.56C117.374 22.56 117.774 22.7067 118.081 23C118.401 23.28 118.561 23.64 118.561 24.08C118.561 24.52 118.401 24.8867 118.081 25.18C117.774 25.46 117.374 25.6 116.881 25.6ZM126.869 37.24C126.363 37.24 125.903 37.1733 125.489 37.04C125.089 36.92 124.729 36.7467 124.409 36.52C124.103 36.28 123.836 36.0067 123.609 35.7L123.309 37H120.909V22.6H123.609V28.4C123.929 27.96 124.349 27.58 124.869 27.26C125.389 26.94 126.056 26.78 126.869 26.78C127.803 26.78 128.629 27.0067 129.349 27.46C130.083 27.9133 130.663 28.54 131.089 29.34C131.516 30.1267 131.729 31.02 131.729 32.02C131.729 33.02 131.516 33.9133 131.089 34.7C130.663 35.4867 130.083 36.1067 129.349 36.56C128.629 37.0133 127.803 37.24 126.869 37.24ZM126.249 34.88C126.783 34.88 127.256 34.76 127.669 34.52C128.083 34.28 128.403 33.9467 128.629 33.52C128.856 33.08 128.969 32.58 128.969 32.02C128.969 31.46 128.856 30.9667 128.629 30.54C128.403 30.1 128.083 29.76 127.669 29.52C127.256 29.2667 126.783 29.14 126.249 29.14C125.729 29.14 125.263 29.2667 124.849 29.52C124.436 29.76 124.116 30.0933 123.889 30.52C123.663 30.9467 123.549 31.4467 123.549 32.02C123.549 32.58 123.663 33.08 123.889 33.52C124.116 33.9467 124.436 34.28 124.849 34.52C125.263 34.76 125.729 34.88 126.249 34.88ZM134.015 37V22.6H136.715V37H134.015ZM144.187 37.24C143.174 37.24 142.274 37.0267 141.487 36.6C140.714 36.16 140.107 35.5533 139.667 34.78C139.227 34.0067 139.007 33.1133 139.007 32.1C139.007 31.06 139.221 30.14 139.647 29.34C140.087 28.54 140.694 27.9133 141.467 27.46C142.254 27.0067 143.161 26.78 144.187 26.78C145.187 26.78 146.061 27 146.807 27.44C147.554 27.8667 148.141 28.4533 148.567 29.2C148.994 29.9333 149.207 30.7733 149.207 31.72C149.207 31.8533 149.201 32 149.187 32.16C149.187 32.32 149.174 32.4933 149.147 32.68H140.947V31.02H146.467C146.427 30.3933 146.194 29.8933 145.767 29.52C145.354 29.1467 144.834 28.96 144.207 28.96C143.741 28.96 143.314 29.0667 142.927 29.28C142.541 29.48 142.234 29.7933 142.007 30.22C141.781 30.6333 141.667 31.16 141.667 31.8V32.38C141.667 32.9133 141.774 33.38 141.987 33.78C142.201 34.18 142.494 34.4933 142.867 34.72C143.254 34.9333 143.687 35.04 144.167 35.04C144.661 35.04 145.074 34.9333 145.407 34.72C145.741 34.5067 145.987 34.22 146.147 33.86H148.907C148.721 34.5 148.407 35.0733 147.967 35.58C147.527 36.0867 146.987 36.4933 146.347 36.8C145.707 37.0933 144.987 37.24 144.187 37.24Z" fill="#414141"/>
</svg>
