<svg width="220" height="60" viewBox="0 0 220 60" fill="none" xmlns="http://www.w3.org/2000/svg">
<rect x="0.5" y="0.5" width="219" height="59" rx="11.5" fill="white" fill-opacity="0.4"/>
<rect x="0.5" y="0.5" width="219" height="59" rx="11.5" stroke="#CCCCCC"/>
<circle cx="36.5" cy="30" r="20" fill="#FFDFA4" fill-opacity="0.8"/>
<path d="M36.0116 21.043H36.9884C37.2407 21.0429 37.4937 21.0429 37.7086 21.0675C37.9543 21.0956 38.2302 21.1626 38.4907 21.3509C38.7511 21.539 38.9015 21.7799 39.0056 22.0042L39.5321 23.5053C39.5935 23.6571 39.6988 23.7866 39.8343 23.8771L40.0692 24.0127C40.2308 24.0917 40.4139 24.1144 40.5897 24.0776L41.5593 23.8043L41.5602 23.8041C41.8216 23.7298 42.1166 23.646 42.344 23.6098C42.6033 23.5686 42.9062 23.5603 43.2237 23.6896C43.5412 23.8187 43.7523 24.0361 43.9093 24.2465C44.0471 24.4311 44.6199 25.4257 44.7557 25.6617L44.7557 25.6617C44.883 25.8827 45.0104 26.1037 45.097 26.3038C45.1959 26.5323 45.2759 26.8066 45.2421 27.1282C45.2084 27.4499 45.0731 27.7016 44.9288 27.9046C44.8025 28.0822 44.632 28.2719 44.4617 28.4614L43.6227 29.3997C43.5513 29.5017 43.4571 29.755 43.4571 30.0012C43.4571 30.2477 43.5512 30.5008 43.6227 30.6028C43.793 30.7923 44.8025 31.9203 44.9288 32.098C45.0731 32.3009 45.2084 32.5526 45.2421 32.8743C45.2759 33.1959 45.1959 33.4702 45.097 33.6988C45.0104 33.8989 44.883 34.1199 44.7557 34.3408C44.7557 34.3408 44.0471 35.5714 43.9093 35.756C43.7523 35.9664 43.5412 36.1838 43.2237 36.313C42.9061 36.4422 42.6033 36.4339 42.344 36.3927C42.1166 36.3566 41.8562 36.2826 41.5948 36.2083L40.5897 35.9249C40.4139 35.888 40.2308 35.9108 40.0692 35.9898L39.8343 36.1255C39.6988 36.216 39.5935 36.3455 39.5322 36.4973L39.2564 37.3215C39.2564 37.3215 39.0968 37.802 39.0056 37.9984C38.9015 38.2227 38.7511 38.4636 38.4907 38.6517C38.2302 38.84 37.9543 38.907 37.7086 38.9351C37.4937 38.9597 37.2408 38.9597 36.9884 38.9596H36.9884H36.0116H36.0116C35.7592 38.9597 35.5063 38.9597 35.2914 38.9351C35.0457 38.907 34.7698 38.84 34.5093 38.6517C34.2489 38.4636 34.0985 38.2227 33.9944 37.9984C33.9032 37.802 33.7326 37.2886 33.7326 37.2886C33.5907 36.8618 33.8215 36.4007 34.248 36.2588C34.6746 36.1168 35.1354 36.3477 35.2773 36.7744C35.3726 37.061 35.4237 37.2107 35.4709 37.3125C35.7723 37.3125 37.4126 37.3296 37.5236 37.3169L38.0069 35.9275C38.1934 35.4409 38.5306 35.0266 38.9692 34.7454L39.3104 34.5485C39.8222 34.2853 40.4105 34.2119 40.9713 34.3413C41.2827 34.4297 42.4799 34.7651 42.5993 34.7841L43.6022 33.0419C43.5367 32.9498 43.4311 32.8304 43.2278 32.6043L42.3551 31.6258C42.0171 31.1976 41.8292 30.5577 41.8292 30.0012C41.8292 29.4448 42.0172 28.8048 42.3552 28.3767L43.6022 26.9606C43.4404 26.6797 42.6776 25.3183 42.605 25.2212L40.9712 25.6612C40.4106 25.7906 39.8224 25.7172 39.3106 25.4541L38.9694 25.2572C38.5306 24.9761 38.1935 24.5617 38.0069 24.075C37.9116 23.7885 37.5763 22.7919 37.5291 22.6901C37.2277 22.6901 35.5874 22.673 35.4764 22.6857L34.9931 24.075C34.8065 24.5617 34.4694 24.9761 34.0306 25.2572L33.6894 25.4541C33.1776 25.7172 32.5894 25.7906 32.0288 25.6612C31.7174 25.5728 30.5201 25.2374 30.4007 25.2185L29.3978 26.9606C29.4633 27.0527 30.4416 28.1506 30.6448 28.3767C30.9828 28.8048 31.1708 29.4448 31.1708 30.0012C31.1708 30.5577 30.9829 31.1976 30.6449 31.6258L29.7736 32.6027L29.7722 32.6043C29.5689 32.8304 29.4378 32.9882 29.3723 33.0804C29.3082 33.509 28.9173 33.815 28.4823 33.7693C28.0352 33.7223 27.7109 33.3216 27.7579 32.8743C27.7916 32.5526 27.9269 32.3009 28.0712 32.098C28.1975 31.9203 28.368 31.7307 28.5383 31.5412L29.3773 30.6028C29.4488 30.5008 29.5429 30.2477 29.5429 30.0012C29.5429 29.755 29.4487 29.5017 29.3773 29.3997C29.207 29.2102 28.1975 28.0822 28.0712 27.9046C27.9269 27.7016 27.7916 27.4499 27.7579 27.1283C27.7241 26.8067 27.8041 26.5323 27.903 26.3038C27.9896 26.1037 28.117 25.8827 28.2443 25.6617L28.2443 25.6617L28.6818 24.902C28.8177 24.666 28.9529 24.4311 29.0907 24.2465C29.2477 24.0361 29.4588 23.8187 29.7763 23.6896C30.0938 23.5603 30.3967 23.5686 30.656 23.6098C30.8834 23.646 31.1785 23.7298 31.4399 23.8041L32.4103 24.0776C32.5861 24.1144 32.7692 24.0917 32.9308 24.0127L33.1657 23.8771C33.3012 23.7866 33.4065 23.657 33.4679 23.5053L33.7326 22.714C33.8124 22.4739 33.9032 22.2006 33.9944 22.0042C34.0985 21.7799 34.2489 21.539 34.5093 21.3509C34.7698 21.1626 35.0457 21.0956 35.2914 21.0675C35.5063 21.0429 35.7593 21.0429 36.0116 21.043Z" fill="#085C44"/>
<path d="M39.3908 32.8582C38.7959 33.453 37.741 33.5058 36.1703 33.5098C35.8281 33.5106 35.6569 33.5111 35.5044 33.5745C35.3518 33.6379 35.2317 33.758 34.9916 33.9982L31.128 37.8623C30.4983 38.4921 29.4771 38.4921 28.8473 37.8623C28.2176 37.2325 28.2176 36.2114 28.8473 35.5816L32.7116 31.7171C32.9517 31.477 33.0717 31.357 33.1351 31.2044C33.1986 31.0519 33.199 30.8808 33.1999 30.5385C33.2039 28.9688 33.2567 27.9135 33.8515 27.3188C34.5297 26.6407 34.8293 26.6681 37.8336 26.6681C38.1239 26.6669 38.2701 27.018 38.0648 27.2233L36.5179 28.7703C36.1253 29.163 36.1242 29.7996 36.5169 30.1922C36.9096 30.5848 37.5462 30.5848 37.939 30.1923L39.4862 28.6457C39.6916 28.4404 40.0428 28.5865 40.0415 28.8768C40.0415 31.8806 40.069 32.1801 39.3908 32.8582Z" fill="#085C44"/>
<path d="M76.18 37.24C74.78 37.24 73.5733 36.94 72.56 36.34C71.5467 35.7267 70.7667 34.88 70.22 33.8C69.6733 32.7067 69.4 31.4467 69.4 30.02C69.4 28.5933 69.6733 27.3333 70.22 26.24C70.7667 25.1467 71.5467 24.2933 72.56 23.68C73.5733 23.0667 74.78 22.76 76.18 22.76C77.8867 22.76 79.28 23.18 80.36 24.02C81.44 24.86 82.1133 26.0467 82.38 27.58H79.42C79.2467 26.8333 78.8867 26.2533 78.34 25.84C77.7933 25.4133 77.0667 25.2 76.16 25.2C75.32 25.2 74.6 25.4 74 25.8C73.4 26.1867 72.94 26.74 72.62 27.46C72.3133 28.1667 72.16 29.02 72.16 30.02C72.16 31.0067 72.3133 31.86 72.62 32.58C72.94 33.3 73.4 33.8533 74 34.24C74.6 34.6267 75.32 34.82 76.16 34.82C77.0667 34.82 77.7933 34.6267 78.34 34.24C78.8867 33.84 79.2467 33.2867 79.42 32.58H82.38C82.1133 34.0333 81.44 35.1733 80.36 36C79.28 36.8267 77.8867 37.24 76.18 37.24ZM88.3252 37.24C87.5118 37.24 86.8118 37.0667 86.2252 36.72C85.6518 36.3733 85.2118 35.8667 84.9052 35.2C84.5985 34.52 84.4452 33.6867 84.4452 32.7V27.02H87.1452V32.44C87.1452 33.2533 87.3118 33.88 87.6452 34.32C87.9785 34.7467 88.5052 34.96 89.2252 34.96C89.6785 34.96 90.0785 34.8533 90.4252 34.64C90.7852 34.4267 91.0652 34.12 91.2652 33.72C91.4652 33.32 91.5652 32.8267 91.5652 32.24V27.02H94.2652V37H91.9052L91.6852 35.34C91.3785 35.9133 90.9385 36.3733 90.3652 36.72C89.7918 37.0667 89.1118 37.24 88.3252 37.24ZM101.01 37.24C100.117 37.24 99.3298 37.0933 98.6498 36.8C97.9832 36.5067 97.4498 36.1067 97.0498 35.6C96.6498 35.08 96.4165 34.4933 96.3498 33.84H99.0498C99.1032 34.08 99.2098 34.3067 99.3698 34.52C99.5432 34.72 99.7632 34.88 100.03 35C100.31 35.12 100.63 35.18 100.99 35.18C101.35 35.18 101.643 35.1333 101.87 35.04C102.097 34.9333 102.263 34.8 102.37 34.64C102.477 34.4667 102.53 34.2867 102.53 34.1C102.53 33.82 102.45 33.6133 102.29 33.48C102.13 33.3333 101.89 33.2133 101.57 33.12C101.263 33.0267 100.897 32.9333 100.47 32.84C100.017 32.7333 99.5632 32.6133 99.1098 32.48C98.6698 32.3467 98.2632 32.1733 97.8898 31.96C97.5165 31.7467 97.2165 31.48 96.9898 31.16C96.7765 30.8267 96.6698 30.4133 96.6698 29.92C96.6698 29.3333 96.8298 28.8 97.1498 28.32C97.4698 27.84 97.9365 27.4667 98.5498 27.2C99.1632 26.92 99.8965 26.78 100.75 26.78C101.95 26.78 102.903 27.0533 103.61 27.6C104.33 28.1467 104.75 28.9 104.87 29.86H102.33C102.263 29.54 102.09 29.2933 101.81 29.12C101.543 28.9467 101.183 28.86 100.73 28.86C100.263 28.86 99.9032 28.9467 99.6498 29.12C99.4098 29.2933 99.2898 29.5067 99.2898 29.76C99.2898 29.9467 99.3698 30.1133 99.5298 30.26C99.7032 30.3933 99.9432 30.5133 100.25 30.62C100.57 30.7267 100.937 30.8267 101.35 30.92C102.097 31.08 102.757 31.26 103.33 31.46C103.917 31.66 104.383 31.9467 104.73 32.32C105.077 32.6933 105.25 33.24 105.25 33.96C105.25 34.5867 105.077 35.1533 104.73 35.66C104.397 36.1533 103.91 36.54 103.27 36.82C102.643 37.1 101.89 37.24 101.01 37.24ZM111.703 37C110.996 37 110.376 36.8933 109.843 36.68C109.323 36.4533 108.916 36.0867 108.623 35.58C108.329 35.06 108.183 34.3533 108.183 33.46V29.28H106.483V27.02H108.183L108.483 24.3H110.883V27.02H113.523V29.28H110.883V33.5C110.883 33.9533 110.983 34.2667 111.183 34.44C111.383 34.6133 111.723 34.7 112.203 34.7H113.483V37H111.703ZM120.283 37.24C119.323 37.24 118.456 37.02 117.683 36.58C116.923 36.1267 116.316 35.5067 115.863 34.72C115.41 33.9333 115.183 33.0333 115.183 32.02C115.183 30.98 115.41 30.0667 115.863 29.28C116.316 28.4933 116.93 27.88 117.703 27.44C118.476 27 119.336 26.78 120.283 26.78C121.256 26.78 122.13 27 122.903 27.44C123.676 27.88 124.283 28.4933 124.723 29.28C125.176 30.0667 125.403 30.98 125.403 32.02C125.403 33.0467 125.176 33.9533 124.723 34.74C124.27 35.5133 123.656 36.1267 122.883 36.58C122.11 37.02 121.243 37.24 120.283 37.24ZM120.283 34.9C120.723 34.9 121.116 34.7933 121.463 34.58C121.823 34.3667 122.11 34.0467 122.323 33.62C122.536 33.18 122.643 32.64 122.643 32C122.643 31.36 122.536 30.8267 122.323 30.4C122.11 29.9733 121.823 29.6533 121.463 29.44C121.116 29.2267 120.73 29.12 120.303 29.12C119.876 29.12 119.483 29.2267 119.123 29.44C118.763 29.6533 118.476 29.9733 118.263 30.4C118.05 30.8267 117.943 31.3667 117.943 32.02C117.943 32.6467 118.05 33.18 118.263 33.62C118.476 34.0467 118.756 34.3667 119.103 34.58C119.463 34.7933 119.856 34.9 120.283 34.9ZM127.691 37V27.02H130.071L130.291 28.36C130.611 27.8667 131.031 27.48 131.551 27.2C132.084 26.92 132.697 26.78 133.391 26.78C133.897 26.78 134.351 26.8467 134.751 26.98C135.164 27.1 135.524 27.2933 135.831 27.56C136.151 27.8133 136.411 28.1333 136.611 28.52C136.984 27.9733 137.471 27.5467 138.071 27.24C138.684 26.9333 139.344 26.78 140.051 26.78C140.931 26.78 141.664 26.96 142.251 27.32C142.851 27.6667 143.304 28.18 143.611 28.86C143.917 29.5267 144.071 30.3533 144.071 31.34V37H141.391V31.58C141.391 30.7667 141.231 30.1467 140.911 29.72C140.591 29.28 140.104 29.06 139.451 29.06C139.011 29.06 138.624 29.1667 138.291 29.38C137.957 29.5933 137.697 29.9067 137.511 30.32C137.324 30.72 137.231 31.2067 137.231 31.78V37H134.551V31.58C134.551 30.7667 134.391 30.1467 134.071 29.72C133.751 29.28 133.251 29.06 132.571 29.06C132.144 29.06 131.764 29.1667 131.431 29.38C131.111 29.5933 130.857 29.9067 130.671 30.32C130.484 30.72 130.391 31.2067 130.391 31.78V37H127.691ZM146.618 37V27.02H149.318V37H146.618ZM147.978 25.6C147.485 25.6 147.085 25.46 146.778 25.18C146.472 24.8867 146.318 24.52 146.318 24.08C146.318 23.64 146.472 23.28 146.778 23C147.085 22.7067 147.485 22.56 147.978 22.56C148.472 22.56 148.872 22.7067 149.178 23C149.498 23.28 149.658 23.64 149.658 24.08C149.658 24.52 149.498 24.8867 149.178 25.18C148.872 25.46 148.472 25.6 147.978 25.6ZM151.367 37V34.84L156.387 29.26H151.427V27.02H159.487V29.18L154.387 34.76H159.587V37H151.367ZM165.154 37.24C164.314 37.24 163.62 37.1067 163.074 36.84C162.527 36.56 162.12 36.1933 161.854 35.74C161.587 35.2867 161.454 34.7867 161.454 34.24C161.454 33.6267 161.607 33.0867 161.914 32.62C162.234 32.1533 162.714 31.7933 163.354 31.54C163.994 31.2733 164.794 31.14 165.754 31.14H168.254C168.254 30.6467 168.18 30.2467 168.034 29.94C167.9 29.62 167.694 29.38 167.414 29.22C167.134 29.06 166.767 28.98 166.314 28.98C165.807 28.98 165.367 29.0933 164.994 29.32C164.634 29.5467 164.414 29.8867 164.334 30.34H161.714C161.78 29.6067 162.02 28.98 162.434 28.46C162.847 27.9267 163.387 27.5133 164.054 27.22C164.734 26.9267 165.494 26.78 166.334 26.78C167.28 26.78 168.094 26.94 168.774 27.26C169.467 27.5667 170 28.0267 170.374 28.64C170.76 29.24 170.954 29.9733 170.954 30.84V37H168.674L168.374 35.46C168.227 35.7267 168.054 35.9667 167.854 36.18C167.654 36.3933 167.42 36.58 167.154 36.74C166.887 36.9 166.587 37.02 166.254 37.1C165.92 37.1933 165.554 37.24 165.154 37.24ZM165.794 35.16C166.14 35.16 166.454 35.1 166.734 34.98C167.014 34.8467 167.247 34.6733 167.434 34.46C167.634 34.2333 167.787 33.98 167.894 33.7C168.014 33.42 168.094 33.12 168.134 32.8V32.78H166.054C165.654 32.78 165.32 32.8333 165.054 32.94C164.787 33.0467 164.594 33.1933 164.474 33.38C164.354 33.5533 164.294 33.76 164.294 34C164.294 34.2533 164.354 34.4667 164.474 34.64C164.607 34.8 164.78 34.9267 164.994 35.02C165.22 35.1133 165.487 35.16 165.794 35.16ZM179.373 37.24C178.867 37.24 178.407 37.1733 177.993 37.04C177.593 36.92 177.233 36.7467 176.913 36.52C176.607 36.28 176.34 36.0067 176.113 35.7L175.813 37H173.413V22.6H176.113V28.4C176.433 27.96 176.853 27.58 177.373 27.26C177.893 26.94 178.56 26.78 179.373 26.78C180.307 26.78 181.133 27.0067 181.853 27.46C182.587 27.9133 183.167 28.54 183.593 29.34C184.02 30.1267 184.233 31.02 184.233 32.02C184.233 33.02 184.02 33.9133 183.593 34.7C183.167 35.4867 182.587 36.1067 181.853 36.56C181.133 37.0133 180.307 37.24 179.373 37.24ZM178.753 34.88C179.287 34.88 179.76 34.76 180.173 34.52C180.587 34.28 180.907 33.9467 181.133 33.52C181.36 33.08 181.473 32.58 181.473 32.02C181.473 31.46 181.36 30.9667 181.133 30.54C180.907 30.1 180.587 29.76 180.173 29.52C179.76 29.2667 179.287 29.14 178.753 29.14C178.233 29.14 177.767 29.2667 177.353 29.52C176.94 29.76 176.62 30.0933 176.393 30.52C176.167 30.9467 176.053 31.4467 176.053 32.02C176.053 32.58 176.167 33.08 176.393 33.52C176.62 33.9467 176.94 34.28 177.353 34.52C177.767 34.76 178.233 34.88 178.753 34.88ZM186.519 37V22.6H189.219V37H186.519ZM196.691 37.24C195.678 37.24 194.778 37.0267 193.991 36.6C193.218 36.16 192.611 35.5533 192.171 34.78C191.731 34.0067 191.511 33.1133 191.511 32.1C191.511 31.06 191.725 30.14 192.151 29.34C192.591 28.54 193.198 27.9133 193.971 27.46C194.758 27.0067 195.665 26.78 196.691 26.78C197.691 26.78 198.565 27 199.311 27.44C200.058 27.8667 200.645 28.4533 201.071 29.2C201.498 29.9333 201.711 30.7733 201.711 31.72C201.711 31.8533 201.705 32 201.691 32.16C201.691 32.32 201.678 32.4933 201.651 32.68H193.451V31.02H198.971C198.931 30.3933 198.698 29.8933 198.271 29.52C197.858 29.1467 197.338 28.96 196.711 28.96C196.245 28.96 195.818 29.0667 195.431 29.28C195.045 29.48 194.738 29.7933 194.511 30.22C194.285 30.6333 194.171 31.16 194.171 31.8V32.38C194.171 32.9133 194.278 33.38 194.491 33.78C194.705 34.18 194.998 34.4933 195.371 34.72C195.758 34.9333 196.191 35.04 196.671 35.04C197.165 35.04 197.578 34.9333 197.911 34.72C198.245 34.5067 198.491 34.22 198.651 33.86H201.411C201.225 34.5 200.911 35.0733 200.471 35.58C200.031 36.0867 199.491 36.4933 198.851 36.8C198.211 37.0933 197.491 37.24 196.691 37.24Z" fill="#414141"/>
</svg>
