<svg width="235" height="60" viewBox="0 0 235 60" fill="none" xmlns="http://www.w3.org/2000/svg">
<rect x="0.5" y="0.5" width="234" height="59" rx="11.5" fill="white" fill-opacity="0.4"/>
<rect x="0.5" y="0.5" width="234" height="59" rx="11.5" stroke="#CCCCCC"/>
<circle cx="39" cy="30" r="20" fill="#FFDFA4" fill-opacity="0.8"/>
<path d="M39 16.5625C46.4213 16.5625 52.4375 22.5787 52.4375 30C52.4375 37.4213 46.4213 43.4375 39 43.4375C31.5787 43.4375 25.5625 37.4213 25.5625 30C25.5625 22.5787 31.5787 16.5625 39 16.5625ZM39 22.8125C38.4822 22.8125 38.0625 23.2322 38.0625 23.75V24.2803C37.2934 24.4111 36.5873 24.7012 36.0146 25.1211C35.2162 25.7066 34.625 26.5937 34.625 27.6602C34.6251 28.5982 34.9619 29.465 35.8223 30.041C36.6025 30.5633 37.6902 30.7578 39 30.7578C40.1977 30.7578 40.9101 30.9379 41.3027 31.1924C41.61 31.3916 41.8125 31.6927 41.8125 32.3408C41.8125 32.8855 41.5887 33.2223 41.1709 33.4717C40.6962 33.7549 39.9508 33.9238 39 33.9238C38.1253 33.9238 37.3752 33.6836 36.8711 33.3447C36.3613 33.002 36.1875 32.6294 36.1875 32.3408C36.1875 31.8231 35.7678 31.4033 35.25 31.4033C34.7322 31.4033 34.3125 31.8231 34.3125 32.3408C34.3125 33.4442 34.978 34.3319 35.8252 34.9014C36.4509 35.322 37.2233 35.6086 38.0625 35.7314V36.25C38.0625 36.7678 38.4822 37.1875 39 37.1875C39.5178 37.1875 39.9375 36.7678 39.9375 36.25V35.751C40.7332 35.6658 41.4964 35.4603 42.1318 35.0811C43.0713 34.5202 43.6875 33.5965 43.6875 32.3408C43.6875 31.1888 43.2647 30.2301 42.3223 29.6191C41.4649 29.0635 40.3023 28.8828 39 28.8828C37.81 28.8828 37.1788 28.6933 36.8652 28.4834C36.6321 28.3273 36.5001 28.1138 36.5 27.6602C36.5 27.3346 36.6784 26.9606 37.124 26.6338C37.5691 26.3074 38.2292 26.0771 39 26.0771C39.7708 26.0771 40.4309 26.3074 40.876 26.6338C41.3216 26.9606 41.5 27.3346 41.5 27.6602C41.5002 28.1777 41.9199 28.5977 42.4375 28.5977C42.9551 28.5977 43.3748 28.1777 43.375 27.6602C43.375 26.5937 42.7838 25.7066 41.9854 25.1211C41.4127 24.7012 40.7066 24.4111 39.9375 24.2803V23.75C39.9375 23.2322 39.5178 22.8125 39 22.8125Z" fill="#085C44"/>
<path d="M78.68 37.24C77.28 37.24 76.0733 36.94 75.06 36.34C74.0467 35.7267 73.2667 34.88 72.72 33.8C72.1733 32.7067 71.9 31.4467 71.9 30.02C71.9 28.5933 72.1733 27.3333 72.72 26.24C73.2667 25.1467 74.0467 24.2933 75.06 23.68C76.0733 23.0667 77.28 22.76 78.68 22.76C80.3867 22.76 81.78 23.18 82.86 24.02C83.94 24.86 84.6133 26.0467 84.88 27.58H81.92C81.7467 26.8333 81.3867 26.2533 80.84 25.84C80.2933 25.4133 79.5667 25.2 78.66 25.2C77.82 25.2 77.1 25.4 76.5 25.8C75.9 26.1867 75.44 26.74 75.12 27.46C74.8133 28.1667 74.66 29.02 74.66 30.02C74.66 31.0067 74.8133 31.86 75.12 32.58C75.44 33.3 75.9 33.8533 76.5 34.24C77.1 34.6267 77.82 34.82 78.66 34.82C79.5667 34.82 80.2933 34.6267 80.84 34.24C81.3867 33.84 81.7467 33.2867 81.92 32.58H84.88C84.6133 34.0333 83.94 35.1733 82.86 36C81.78 36.8267 80.3867 37.24 78.68 37.24ZM91.8652 37.24C90.9052 37.24 90.0385 37.02 89.2652 36.58C88.5052 36.1267 87.8985 35.5067 87.4452 34.72C86.9918 33.9333 86.7652 33.0333 86.7652 32.02C86.7652 30.98 86.9918 30.0667 87.4452 29.28C87.8985 28.4933 88.5118 27.88 89.2852 27.44C90.0585 27 90.9185 26.78 91.8652 26.78C92.8385 26.78 93.7118 27 94.4852 27.44C95.2585 27.88 95.8652 28.4933 96.3052 29.28C96.7585 30.0667 96.9852 30.98 96.9852 32.02C96.9852 33.0467 96.7585 33.9533 96.3052 34.74C95.8518 35.5133 95.2385 36.1267 94.4652 36.58C93.6918 37.02 92.8252 37.24 91.8652 37.24ZM91.8652 34.9C92.3052 34.9 92.6985 34.7933 93.0452 34.58C93.4052 34.3667 93.6918 34.0467 93.9052 33.62C94.1185 33.18 94.2252 32.64 94.2252 32C94.2252 31.36 94.1185 30.8267 93.9052 30.4C93.6918 29.9733 93.4052 29.6533 93.0452 29.44C92.6985 29.2267 92.3118 29.12 91.8852 29.12C91.4585 29.12 91.0652 29.2267 90.7052 29.44C90.3452 29.6533 90.0585 29.9733 89.8452 30.4C89.6318 30.8267 89.5252 31.3667 89.5252 32.02C89.5252 32.6467 89.6318 33.18 89.8452 33.62C90.0585 34.0467 90.3385 34.3667 90.6852 34.58C91.0452 34.7933 91.4385 34.9 91.8652 34.9ZM103.393 37.24C102.499 37.24 101.713 37.0933 101.033 36.8C100.366 36.5067 99.8327 36.1067 99.4327 35.6C99.0327 35.08 98.7993 34.4933 98.7327 33.84H101.433C101.486 34.08 101.593 34.3067 101.753 34.52C101.926 34.72 102.146 34.88 102.413 35C102.693 35.12 103.013 35.18 103.373 35.18C103.733 35.18 104.026 35.1333 104.253 35.04C104.479 34.9333 104.646 34.8 104.753 34.64C104.859 34.4667 104.913 34.2867 104.913 34.1C104.913 33.82 104.833 33.6133 104.673 33.48C104.513 33.3333 104.273 33.2133 103.953 33.12C103.646 33.0267 103.279 32.9333 102.853 32.84C102.399 32.7333 101.946 32.6133 101.493 32.48C101.053 32.3467 100.646 32.1733 100.273 31.96C99.8993 31.7467 99.5993 31.48 99.3727 31.16C99.1593 30.8267 99.0527 30.4133 99.0527 29.92C99.0527 29.3333 99.2127 28.8 99.5327 28.32C99.8527 27.84 100.319 27.4667 100.933 27.2C101.546 26.92 102.279 26.78 103.133 26.78C104.333 26.78 105.286 27.0533 105.993 27.6C106.713 28.1467 107.133 28.9 107.253 29.86H104.713C104.646 29.54 104.473 29.2933 104.193 29.12C103.926 28.9467 103.566 28.86 103.113 28.86C102.646 28.86 102.286 28.9467 102.033 29.12C101.793 29.2933 101.673 29.5067 101.673 29.76C101.673 29.9467 101.753 30.1133 101.913 30.26C102.086 30.3933 102.326 30.5133 102.633 30.62C102.953 30.7267 103.319 30.8267 103.733 30.92C104.479 31.08 105.139 31.26 105.713 31.46C106.299 31.66 106.766 31.9467 107.113 32.32C107.459 32.6933 107.633 33.24 107.633 33.96C107.633 34.5867 107.459 35.1533 107.113 35.66C106.779 36.1533 106.293 36.54 105.653 36.82C105.026 37.1 104.273 37.24 103.393 37.24ZM114.086 37C113.379 37 112.759 36.8933 112.226 36.68C111.706 36.4533 111.299 36.0867 111.006 35.58C110.712 35.06 110.566 34.3533 110.566 33.46V29.28H108.866V27.02H110.566L110.866 24.3H113.266V27.02H115.906V29.28H113.266V33.5C113.266 33.9533 113.366 34.2667 113.566 34.44C113.766 34.6133 114.106 34.7 114.586 34.7H115.866V37H114.086ZM118.38 32.3V30.04H126.82V32.3H118.38ZM129.723 37V23H138.923V25.18H132.423V28.84H138.323V30.94H132.423V34.82H138.923V37H129.723ZM141.744 37V26.02C141.744 25.18 141.884 24.5133 142.164 24.02C142.444 23.5267 142.844 23.1667 143.364 22.94C143.884 22.7133 144.498 22.6 145.204 22.6H146.364V24.9H145.624C145.198 24.9 144.891 24.9867 144.704 25.16C144.531 25.32 144.444 25.6067 144.444 26.02V37H141.744ZM140.384 29.28V27.02H146.564V29.28H140.384ZM149.088 37V26.02C149.088 25.18 149.228 24.5133 149.508 24.02C149.788 23.5267 150.188 23.1667 150.708 22.94C151.228 22.7133 151.841 22.6 152.548 22.6H153.708V24.9H152.968C152.541 24.9 152.235 24.9867 152.048 25.16C151.875 25.32 151.788 25.6067 151.788 26.02V37H149.088ZM147.728 29.28V27.02H153.908V29.28H147.728ZM160.441 37.24C159.428 37.24 158.528 37.0267 157.741 36.6C156.968 36.16 156.361 35.5533 155.921 34.78C155.481 34.0067 155.261 33.1133 155.261 32.1C155.261 31.06 155.475 30.14 155.901 29.34C156.341 28.54 156.948 27.9133 157.721 27.46C158.508 27.0067 159.415 26.78 160.441 26.78C161.441 26.78 162.315 27 163.061 27.44C163.808 27.8667 164.395 28.4533 164.821 29.2C165.248 29.9333 165.461 30.7733 165.461 31.72C165.461 31.8533 165.455 32 165.441 32.16C165.441 32.32 165.428 32.4933 165.401 32.68H157.201V31.02H162.721C162.681 30.3933 162.448 29.8933 162.021 29.52C161.608 29.1467 161.088 28.96 160.461 28.96C159.995 28.96 159.568 29.0667 159.181 29.28C158.795 29.48 158.488 29.7933 158.261 30.22C158.035 30.6333 157.921 31.16 157.921 31.8V32.38C157.921 32.9133 158.028 33.38 158.241 33.78C158.455 34.18 158.748 34.4933 159.121 34.72C159.508 34.9333 159.941 35.04 160.421 35.04C160.915 35.04 161.328 34.9333 161.661 34.72C161.995 34.5067 162.241 34.22 162.401 33.86H165.161C164.975 34.5 164.661 35.0733 164.221 35.58C163.781 36.0867 163.241 36.4933 162.601 36.8C161.961 37.0933 161.241 37.24 160.441 37.24ZM172.513 37.24C171.499 37.24 170.599 37.02 169.813 36.58C169.026 36.1267 168.406 35.5067 167.953 34.72C167.513 33.9333 167.293 33.0333 167.293 32.02C167.293 30.9933 167.513 30.0933 167.953 29.32C168.406 28.5333 169.026 27.9133 169.813 27.46C170.599 27.0067 171.499 26.78 172.513 26.78C173.806 26.78 174.886 27.12 175.753 27.8C176.633 28.4667 177.193 29.3867 177.433 30.56H174.573C174.453 30.1067 174.206 29.7467 173.833 29.48C173.459 29.2133 173.013 29.08 172.493 29.08C172.026 29.08 171.606 29.2 171.233 29.44C170.873 29.6667 170.586 30 170.373 30.44C170.159 30.88 170.053 31.4 170.053 32C170.053 32.4667 170.113 32.88 170.233 33.24C170.366 33.6 170.539 33.9067 170.753 34.16C170.979 34.4133 171.239 34.6067 171.533 34.74C171.826 34.8733 172.146 34.94 172.493 34.94C172.839 34.94 173.153 34.8867 173.433 34.78C173.713 34.66 173.953 34.4867 174.153 34.26C174.353 34.0333 174.493 33.7667 174.573 33.46H177.433C177.193 34.6067 176.633 35.5267 175.753 36.22C174.873 36.9 173.793 37.24 172.513 37.24ZM184.125 37C183.418 37 182.798 36.8933 182.265 36.68C181.745 36.4533 181.338 36.0867 181.045 35.58C180.751 35.06 180.605 34.3533 180.605 33.46V29.28H178.905V27.02H180.605L180.905 24.3H183.305V27.02H185.945V29.28H183.305V33.5C183.305 33.9533 183.405 34.2667 183.605 34.44C183.805 34.6133 184.145 34.7 184.625 34.7H185.905V37H184.125ZM188.259 37V27.02H190.959V37H188.259ZM189.619 25.6C189.126 25.6 188.726 25.46 188.419 25.18C188.112 24.8867 187.959 24.52 187.959 24.08C187.959 23.64 188.112 23.28 188.419 23C188.726 22.7067 189.126 22.56 189.619 22.56C190.112 22.56 190.512 22.7067 190.819 23C191.139 23.28 191.299 23.64 191.299 24.08C191.299 24.52 191.139 24.8867 190.819 25.18C190.512 25.46 190.112 25.6 189.619 25.6ZM196.328 37L192.668 27.02H195.508L197.968 34.46L200.448 27.02H203.248L199.608 37H196.328ZM209.25 37.24C208.237 37.24 207.337 37.0267 206.55 36.6C205.777 36.16 205.17 35.5533 204.73 34.78C204.29 34.0067 204.07 33.1133 204.07 32.1C204.07 31.06 204.283 30.14 204.71 29.34C205.15 28.54 205.757 27.9133 206.53 27.46C207.317 27.0067 208.223 26.78 209.25 26.78C210.25 26.78 211.123 27 211.87 27.44C212.617 27.8667 213.203 28.4533 213.63 29.2C214.057 29.9333 214.27 30.7733 214.27 31.72C214.27 31.8533 214.263 32 214.25 32.16C214.25 32.32 214.237 32.4933 214.21 32.68H206.01V31.02H211.53C211.49 30.3933 211.257 29.8933 210.83 29.52C210.417 29.1467 209.897 28.96 209.27 28.96C208.803 28.96 208.377 29.0667 207.99 29.28C207.603 29.48 207.297 29.7933 207.07 30.22C206.843 30.6333 206.73 31.16 206.73 31.8V32.38C206.73 32.9133 206.837 33.38 207.05 33.78C207.263 34.18 207.557 34.4933 207.93 34.72C208.317 34.9333 208.75 35.04 209.23 35.04C209.723 35.04 210.137 34.9333 210.47 34.72C210.803 34.5067 211.05 34.22 211.21 33.86H213.97C213.783 34.5 213.47 35.0733 213.03 35.58C212.59 36.0867 212.05 36.4933 211.41 36.8C210.77 37.0933 210.05 37.24 209.25 37.24Z" fill="#414141"/>
</svg>
