<svg width="227" height="60" viewBox="0 0 227 60" fill="none" xmlns="http://www.w3.org/2000/svg">
<rect x="0.5" y="0.5" width="226" height="59" rx="11.5" fill="white" fill-opacity="0.4"/>
<rect x="0.5" y="0.5" width="226" height="59" rx="11.5" stroke="#CCCCCC"/>
<circle cx="41.5" cy="30" r="20" fill="#FFDFA4" fill-opacity="0.8"/>
<rect width="25" height="25" transform="translate(29 17)" fill="#FFDFA4" fill-opacity="0.8"/>
<path d="M41.5595 36.336C41.6404 36.5491 41.731 36.7655 41.831 36.9854C41.911 37.1614 42.0531 37.3019 42.2304 37.379C42.5331 37.5106 42.829 37.6246 43.1181 37.7218C42.5163 38.4719 41.9205 39.3295 41.3632 40.3048C41.0778 40.8042 40.4408 40.9779 39.9413 40.6925C39.4419 40.407 39.2682 39.7701 39.5537 39.2706C40.1889 38.1589 40.8713 37.1853 41.5595 36.336ZM49.7128 27.5636C49.9352 27.5515 50.222 27.5361 50.4355 27.5577C50.6993 27.5845 50.9961 27.6706 51.2529 27.9181C51.5129 28.1689 51.6087 28.4671 51.6406 28.7345C51.6659 28.9478 51.6538 29.2347 51.6445 29.4532C51.5536 31.6226 51.0211 34.3108 49.5917 36.1251C48.8606 37.0531 47.8809 37.7675 46.6113 38.0333C45.5804 38.2491 44.4177 38.1565 43.1181 37.7198C44.6548 35.8044 46.2285 34.587 47.2861 33.8819C47.7646 33.5629 47.894 32.9162 47.5751 32.4376C47.2561 31.959 46.6095 31.8296 46.1308 32.1485C44.9581 32.9304 43.2396 34.261 41.5595 36.3341C41.0414 34.9689 40.9131 33.7458 41.1337 32.6622C41.3905 31.4017 42.1001 30.4236 43.0234 29.6886C44.8301 28.2504 47.5234 27.6812 49.7128 27.5636Z" fill="#085C44"/>
<path d="M43.3423 19.2862C41.7061 17.8004 39.2105 17.8004 37.5744 19.2862C36.3179 20.4273 34.7759 22.0022 33.5428 23.811C32.3165 25.6097 31.3438 27.7153 31.3438 29.9013C31.3438 33.3993 33.7062 37.1932 37.7504 38.3487C37.9568 38.4076 38.06 38.4371 38.1584 38.3984C38.2569 38.3596 38.3162 38.2613 38.4349 38.0648C38.8194 37.4275 39.2228 36.8354 39.6275 36.2838C39.7176 36.1609 39.7626 36.0995 39.776 36.0308C39.7894 35.9622 39.7701 35.8861 39.7316 35.7338C39.4362 34.5677 39.382 33.4341 39.6023 32.3517C39.9458 30.6644 40.8978 29.3838 42.0504 28.4663C43.6778 27.1709 45.8056 26.508 47.7392 26.2029C48.0766 26.1497 48.2453 26.123 48.3214 26.0205C48.3424 25.9923 48.3574 25.9631 48.3681 25.9296C48.4071 25.8081 48.3324 25.6594 48.1831 25.362C46.9012 22.9098 44.9528 20.7488 43.3423 19.2862Z" fill="#085C44"/>
<path d="M74.86 37V23H84.06V25.18H77.56V28.84H83.46V30.94H77.56V34.82H84.06V37H74.86ZM91.3211 37.24C90.3078 37.24 89.4078 37.02 88.6211 36.58C87.8344 36.1267 87.2144 35.5067 86.7611 34.72C86.3211 33.9333 86.1011 33.0333 86.1011 32.02C86.1011 30.9933 86.3211 30.0933 86.7611 29.32C87.2144 28.5333 87.8344 27.9133 88.6211 27.46C89.4078 27.0067 90.3078 26.78 91.3211 26.78C92.6144 26.78 93.6944 27.12 94.5611 27.8C95.4411 28.4667 96.0011 29.3867 96.2411 30.56H93.3811C93.2611 30.1067 93.0144 29.7467 92.6411 29.48C92.2678 29.2133 91.8211 29.08 91.3011 29.08C90.8344 29.08 90.4144 29.2 90.0411 29.44C89.6811 29.6667 89.3944 30 89.1811 30.44C88.9678 30.88 88.8611 31.4 88.8611 32C88.8611 32.4667 88.9211 32.88 89.0411 33.24C89.1744 33.6 89.3478 33.9067 89.5611 34.16C89.7878 34.4133 90.0478 34.6067 90.3411 34.74C90.6344 34.8733 90.9544 34.94 91.3011 34.94C91.6478 34.94 91.9611 34.8867 92.2411 34.78C92.5211 34.66 92.7611 34.4867 92.9611 34.26C93.1611 34.0333 93.3011 33.7667 93.3811 33.46H96.2411C96.0011 34.6067 95.4411 35.5267 94.5611 36.22C93.6811 36.9 92.6011 37.24 91.3211 37.24ZM103.31 37.24C102.35 37.24 101.484 37.02 100.71 36.58C99.9505 36.1267 99.3438 35.5067 98.8905 34.72C98.4371 33.9333 98.2105 33.0333 98.2105 32.02C98.2105 30.98 98.4371 30.0667 98.8905 29.28C99.3438 28.4933 99.9571 27.88 100.73 27.44C101.504 27 102.364 26.78 103.31 26.78C104.284 26.78 105.157 27 105.93 27.44C106.704 27.88 107.31 28.4933 107.75 29.28C108.204 30.0667 108.43 30.98 108.43 32.02C108.43 33.0467 108.204 33.9533 107.75 34.74C107.297 35.5133 106.684 36.1267 105.91 36.58C105.137 37.02 104.27 37.24 103.31 37.24ZM103.31 34.9C103.75 34.9 104.144 34.7933 104.49 34.58C104.85 34.3667 105.137 34.0467 105.35 33.62C105.564 33.18 105.67 32.64 105.67 32C105.67 31.36 105.564 30.8267 105.35 30.4C105.137 29.9733 104.85 29.6533 104.49 29.44C104.144 29.2267 103.757 29.12 103.33 29.12C102.904 29.12 102.51 29.2267 102.15 29.44C101.79 29.6533 101.504 29.9733 101.29 30.4C101.077 30.8267 100.97 31.3667 100.97 32.02C100.97 32.6467 101.077 33.18 101.29 33.62C101.504 34.0467 101.784 34.3667 102.13 34.58C102.49 34.7933 102.884 34.9 103.31 34.9ZM110.958 32.3V30.04H119.398V32.3H110.958ZM127.008 37V23H136.128V25.18H129.708V28.92H134.848V31.04H129.708V37H127.008ZM138.042 37V27.02H140.442L140.702 28.88C140.956 28.44 141.256 28.0667 141.602 27.76C141.962 27.4533 142.376 27.2133 142.842 27.04C143.309 26.8667 143.822 26.78 144.382 26.78V29.64H143.562C143.149 29.64 142.769 29.6867 142.422 29.78C142.076 29.86 141.776 30.0067 141.522 30.22C141.282 30.4333 141.089 30.7267 140.942 31.1C140.809 31.46 140.742 31.9133 140.742 32.46V37H138.042ZM146.208 37V27.02H148.908V37H146.208ZM147.568 25.6C147.075 25.6 146.675 25.46 146.368 25.18C146.061 24.8867 145.908 24.52 145.908 24.08C145.908 23.64 146.061 23.28 146.368 23C146.675 22.7067 147.075 22.56 147.568 22.56C148.061 22.56 148.461 22.7067 148.768 23C149.088 23.28 149.248 23.64 149.248 24.08C149.248 24.52 149.088 24.8867 148.768 25.18C148.461 25.46 148.061 25.6 147.568 25.6ZM156.457 37.24C155.444 37.24 154.544 37.0267 153.757 36.6C152.984 36.16 152.377 35.5533 151.937 34.78C151.497 34.0067 151.277 33.1133 151.277 32.1C151.277 31.06 151.49 30.14 151.917 29.34C152.357 28.54 152.964 27.9133 153.737 27.46C154.524 27.0067 155.43 26.78 156.457 26.78C157.457 26.78 158.33 27 159.077 27.44C159.824 27.8667 160.41 28.4533 160.837 29.2C161.264 29.9333 161.477 30.7733 161.477 31.72C161.477 31.8533 161.47 32 161.457 32.16C161.457 32.32 161.444 32.4933 161.417 32.68H153.217V31.02H158.737C158.697 30.3933 158.464 29.8933 158.037 29.52C157.624 29.1467 157.104 28.96 156.477 28.96C156.01 28.96 155.584 29.0667 155.197 29.28C154.81 29.48 154.504 29.7933 154.277 30.22C154.05 30.6333 153.937 31.16 153.937 31.8V32.38C153.937 32.9133 154.044 33.38 154.257 33.78C154.47 34.18 154.764 34.4933 155.137 34.72C155.524 34.9333 155.957 35.04 156.437 35.04C156.93 35.04 157.344 34.9333 157.677 34.72C158.01 34.5067 158.257 34.22 158.417 33.86H161.177C160.99 34.5 160.677 35.0733 160.237 35.58C159.797 36.0867 159.257 36.4933 158.617 36.8C157.977 37.0933 157.257 37.24 156.457 37.24ZM163.628 37V27.02H166.008L166.208 28.68C166.528 28.1067 166.968 27.6467 167.528 27.3C168.101 26.9533 168.788 26.78 169.588 26.78C170.415 26.78 171.115 26.9533 171.688 27.3C172.261 27.6467 172.701 28.16 173.008 28.84C173.315 29.52 173.468 30.3533 173.468 31.34V37H170.768V31.58C170.768 30.7667 170.601 30.1467 170.268 29.72C169.935 29.28 169.408 29.06 168.688 29.06C168.235 29.06 167.828 29.1667 167.468 29.38C167.121 29.5933 166.841 29.9067 166.628 30.32C166.428 30.72 166.328 31.2067 166.328 31.78V37H163.628ZM180.473 37.24C179.553 37.24 178.726 37.0133 177.993 36.56C177.259 36.1067 176.679 35.4867 176.253 34.7C175.826 33.9 175.613 33 175.613 32C175.613 31 175.826 30.1067 176.253 29.32C176.679 28.52 177.259 27.9 177.993 27.46C178.739 27.0067 179.573 26.78 180.493 26.78C181.226 26.78 181.866 26.9133 182.413 27.18C182.959 27.4467 183.399 27.8267 183.733 28.32V22.6H186.433V37H184.033L183.733 35.62C183.533 35.9133 183.279 36.1867 182.973 36.44C182.679 36.68 182.326 36.8733 181.913 37.02C181.499 37.1667 181.019 37.24 180.473 37.24ZM181.093 34.88C181.626 34.88 182.093 34.76 182.493 34.52C182.906 34.2667 183.226 33.9267 183.453 33.5C183.693 33.06 183.813 32.56 183.813 32C183.813 31.44 183.693 30.9467 183.453 30.52C183.226 30.08 182.906 29.74 182.493 29.5C182.093 29.26 181.619 29.14 181.073 29.14C180.566 29.14 180.106 29.26 179.693 29.5C179.279 29.74 178.953 30.08 178.713 30.52C178.486 30.9467 178.373 31.44 178.373 32C178.373 32.56 178.486 33.06 178.713 33.5C178.953 33.9267 179.279 34.2667 179.693 34.52C180.106 34.76 180.573 34.88 181.093 34.88ZM189.038 37V22.6H191.738V37H189.038ZM195.631 41.4L198.091 35.88H197.491L193.431 27.02H196.371L199.271 33.42L201.871 27.02H204.751L198.491 41.4H195.631Z" fill="#414141"/>
</svg>
