<svg width="155" height="30" viewBox="0 0 155 30" fill="none" xmlns="http://www.w3.org/2000/svg">
<g clip-path="url(#clip0_719_4034)">
<path d="M10 4.525C10 2.7125 11.475 1.25 13.275 1.25H13.75C13.75 0.5625 14.3125 0 15 0C15.6875 0 16.25 0.5625 16.25 1.25H16.5875C17.925 1.25 19.1625 1.9625 19.8375 3.125C20.1875 3.725 19.975 4.4875 19.3875 4.8375C18.7875 5.1875 18.025 4.975 17.675 4.3875C17.45 4 17.0375 3.7625 16.5875 3.7625H13.2875C12.8625 3.7625 12.5125 4.1125 12.5125 4.5375C12.5125 4.925 12.7875 5.25 13.1625 5.3125L17.2625 6C18.85 6.2625 20 7.625 20 9.2375C20 11.05 18.525 12.5125 16.725 12.5125H16.25C16.25 13.2 15.6875 13.7625 15 13.7625C14.3125 13.7625 13.75 13.2 13.75 12.5125H13.4125C12.075 12.5125 10.8375 11.8 10.1625 10.6375C9.8125 10.0375 10.025 9.275 10.6125 8.925C11.2125 8.575 11.975 8.7875 12.325 9.375C12.55 9.7625 12.9625 10 13.4125 10H16.7125C17.1375 10 17.4875 9.65 17.4875 9.225C17.4875 8.8375 17.2125 8.5125 16.8375 8.45L12.7375 7.7625C11.15 7.5 10 6.1375 10 4.525ZM12.1375 15.6875C10.875 14.525 8.8125 14.75 7.875 16.3125C7.2625 17.325 7.4375 18.625 8.1875 19.55L10.425 22.425C10.85 22.975 10.75 23.75 10.2 24.175C9.65 24.6 8.875 24.5 8.45 23.95L6.2125 21.075C4.8125 19.35 4.6125 16.9 5.7375 15.0125C5.8875 14.7625 6.075 14.525 6.2625 14.3V7C6.2625 5.3625 5.0875 3.875 3.4625 3.7125C1.575 3.525 0 5 0 6.825V20.0125C0 22.675 1.0625 25.2375 2.9625 27.1125L5.2 29.3375C5.6625 29.7625 6.275 30 6.9 30H16.25C16.9375 30 17.5 29.4375 17.5 28.75V23.975C17.5 21.9 16.65 19.925 15.1375 18.5125L12.1375 15.6875ZM26.55 3.7125C24.925 3.875 23.75 5.3625 23.75 7V14.3C23.9375 14.525 24.1125 14.75 24.275 15.0125C25.4125 16.8875 25.2 19.35 23.8 21.075L20 24.85V28.7375C20 29.175 19.9125 29.6 19.775 29.9875H23.1C23.725 29.9875 24.3375 29.75 24.8 29.325L27.0375 27.1125C28.9375 25.2375 30 22.675 30 20.0125V6.825C30 4.9875 28.425 3.525 26.55 3.7125ZM22.125 16.3C21.1875 14.7375 19.125 14.5125 17.8625 15.675L16.825 16.65L16.85 16.675C18.275 18.0125 19.25 19.75 19.7 21.6375L21.8125 19.5375C22.5625 18.625 22.725 17.3125 22.125 16.3Z" fill="white"/>
</g>
<path d="M35.484 25L35.092 22.536L36.912 22.172V8.34L35.148 8.144V5.652H47.916L48.448 11.392H46.32L45.116 8.592H40.58V13.576H44.836V16.516H40.58V22.06L45.34 22.788L45.144 25H35.484ZM50.221 25L49.829 22.508L51.789 22.144V8.396L49.885 8.2V5.652H57.165L57.585 8.256L55.457 8.592V22.228L57.529 22.564L57.501 25H50.221ZM60.0113 25L59.5633 22.564L61.4953 22.2V8.452L59.7033 8.256V5.652H66.8713L73.2273 22.312V8.396L71.6033 8.2V5.652H77.6233L78.0433 8.256L76.1673 8.592V25H70.5113L64.4353 9.236V22.088L65.8633 22.536L65.8353 25H60.0113ZM80.3551 25L79.9631 22.536L81.7831 22.172V8.34L80.0191 8.144V5.652H92.7871L93.3191 11.392H91.1911L89.9871 8.592H85.4511V13.576H89.7071V16.516H85.4511V22.06L90.2111 22.788L90.0151 25H80.3551ZM95.1481 25L94.7561 22.536L96.5761 22.172V8.34L94.8121 8.144V5.652H101.924L102.344 8.2L100.244 8.592V22.06H104.976L106.012 19.288H108.224L107.636 25H95.1481ZM117.532 25.112C116.206 25.112 115.03 24.8787 114.004 24.412C112.996 23.9267 112.146 23.2453 111.456 22.368C110.765 21.4907 110.242 20.4547 109.888 19.26C109.533 18.0653 109.356 16.7587 109.356 15.34C109.356 13.9027 109.533 12.596 109.888 11.42C110.242 10.2253 110.765 9.19867 111.456 8.34C112.146 7.46267 112.996 6.79067 114.004 6.324C115.03 5.83867 116.206 5.596 117.532 5.596C118.857 5.596 120.024 5.83867 121.032 6.324C122.04 6.79067 122.889 7.46267 123.58 8.34C124.27 9.19867 124.793 10.2253 125.148 11.42C125.502 12.596 125.68 13.9027 125.68 15.34C125.68 16.7587 125.502 18.0653 125.148 19.26C124.793 20.4547 124.27 21.4907 123.58 22.368C122.889 23.2453 122.04 23.9267 121.032 24.412C120.024 24.8787 118.857 25.112 117.532 25.112ZM117.532 22.172C118.185 22.172 118.773 22.004 119.296 21.668C119.837 21.3133 120.294 20.828 120.668 20.212C121.041 19.596 121.33 18.8773 121.536 18.056C121.741 17.2347 121.844 16.348 121.844 15.396C121.844 14.444 121.741 13.5573 121.536 12.736C121.33 11.896 121.041 11.168 120.668 10.552C120.294 9.91733 119.837 9.42267 119.296 9.068C118.773 8.71333 118.185 8.536 117.532 8.536C116.86 8.536 116.253 8.71333 115.712 9.068C115.189 9.42267 114.741 9.91733 114.368 10.552C113.994 11.168 113.705 11.896 113.5 12.736C113.294 13.5573 113.192 14.444 113.192 15.396C113.192 16.348 113.294 17.2347 113.5 18.056C113.705 18.8773 113.994 19.596 114.368 20.212C114.741 20.828 115.189 21.3133 115.712 21.668C116.253 22.004 116.86 22.172 117.532 22.172ZM131.435 25L128.355 8.536L126.815 8.172V5.652H133.647L134.123 7.864L132.163 8.144L134.459 21.08L138.771 6.016H142.747L146.919 21.388L149.103 8.144L146.751 7.78L147.059 5.652H154.031V8.116L151.847 8.676L148.767 25H144.063L140.115 10.804L136.335 25H131.435Z" fill="white"/>
<defs>
<clipPath id="clip0_719_4034">
<rect width="30" height="30" fill="white"/>
</clipPath>
</defs>
</svg>
