<svg width="184" height="50" viewBox="0 0 184 50" fill="none" xmlns="http://www.w3.org/2000/svg">
<path d="M10.4166 45.8346C13.8684 45.8346 16.6666 43.0364 16.6666 39.5846V24.4958V4.16797H4.16663V39.5846C4.16663 43.0364 6.96484 45.8346 10.4166 45.8346Z" fill="#085C44"/>
<path d="M10.4166 45.8346C13.8684 45.8346 16.6666 43.0364 16.6666 39.5846V24.4958M10.4166 45.8346C6.96484 45.8346 4.16663 43.0364 4.16663 39.5846V4.16797H16.6666V24.4958M10.4166 45.8346H45.8333V33.3346H25.5055M16.6666 24.4958L36.4736 4.6888L36.9638 4.16797L45.818 13.0221L25.5055 33.3346M25.5055 33.3346L14.836 44.004C12.3953 46.4448 8.43799 46.4448 5.99721 44.004" stroke="#7BA800" stroke-width="2" stroke-linecap="round" stroke-linejoin="round"/>
<path d="M14.8361 44.004L45.8179 13.0221L36.9638 4.16797L16.6666 24.4958" stroke="#7BA800" stroke-width="2" stroke-linecap="round" stroke-linejoin="round"/>
<path d="M25.5054 33.3359H45.8333V45.8359H13.0208" stroke="#7BA800" stroke-width="2" stroke-linecap="round" stroke-linejoin="round"/>
<path d="M25.5054 33.3359H45.8333V45.8359H13.0208" stroke="#7BA800" stroke-width="2" stroke-linecap="round" stroke-linejoin="round"/>
<path d="M10.4166 45.8346C13.8684 45.8346 16.6666 43.0364 16.6666 39.5846V24.4958V4.16797H4.16663V39.5846C4.16663 43.0364 6.96484 45.8346 10.4166 45.8346Z" fill="#085C44" stroke="#7BA800" stroke-width="2" stroke-linecap="round" stroke-linejoin="round"/>
<path d="M66.5033 34.9424C64.7336 34.9424 63.1758 34.5184 61.8301 33.6704C60.4844 32.8224 59.4244 31.6426 58.6501 30.131C57.8758 28.6193 57.4887 26.8588 57.4887 24.8494C57.4887 22.84 57.8758 21.0887 58.6501 19.5955C59.4244 18.0838 60.5028 16.904 61.8854 16.056C63.2864 15.208 64.8995 14.784 66.7245 14.784C68.7708 14.784 70.5313 15.3002 72.0061 16.3325C73.4993 17.3464 74.5685 18.7475 75.2137 20.5357L71.8402 21.78C71.4346 20.6555 70.7894 19.7798 69.9045 19.153C69.0381 18.5263 67.9781 18.2129 66.7245 18.2129C65.5816 18.2129 64.5769 18.4802 63.7104 19.0148C62.8624 19.5494 62.208 20.3144 61.7471 21.3099C61.3047 22.287 61.0835 23.4668 61.0835 24.8494C61.0835 26.232 61.3047 27.421 61.7471 28.4165C62.208 29.412 62.8624 30.177 63.7104 30.7117C64.5769 31.2463 65.5816 31.5136 66.7245 31.5136C67.3144 31.5136 67.9228 31.4306 68.5496 31.2647C69.1764 31.0988 69.7478 30.813 70.264 30.4075C70.7986 29.9835 71.2226 29.4028 71.536 28.6654C71.8678 27.928 72.0337 26.9878 72.0337 25.8449V24.7388L72.8357 27.2275H67.3052V24.0198H75.2137V34.5H72.0614L71.5637 31.3753L72.172 31.8454C71.8402 32.5275 71.3885 33.099 70.817 33.5598C70.2456 34.0207 69.5911 34.3617 68.8537 34.583C68.1348 34.8226 67.3513 34.9424 66.5033 34.9424ZM83.9616 34.7765C82.7817 34.7765 81.7678 34.583 80.9198 34.1958C80.0718 33.8087 79.3713 33.2925 78.8182 32.6473C78.2836 31.9837 77.8873 31.237 77.6292 30.4075C77.3711 29.5595 77.2421 28.6746 77.2421 27.7529C77.2421 26.868 77.3711 26.0016 77.6292 25.1536C77.8873 24.3056 78.2744 23.5405 78.7906 22.8584C79.3068 22.1763 79.9704 21.6325 80.7816 21.227C81.6111 20.803 82.5974 20.591 83.7403 20.591C84.8096 20.591 85.7405 20.7753 86.5332 21.144C87.3259 21.4943 87.9803 21.992 88.4965 22.6372C89.0127 23.264 89.3998 24.0014 89.6579 24.8494C89.9344 25.6974 90.0727 26.6007 90.0727 27.5593C90.0727 27.6883 90.0635 27.8727 90.045 28.1123C90.045 28.3336 90.0266 28.5732 89.9897 28.8313H80.6709C80.7631 29.8083 81.1226 30.5457 81.7494 31.0435C82.3946 31.5412 83.1965 31.7901 84.1551 31.7901C84.8556 31.7901 85.5377 31.6703 86.2014 31.4306C86.865 31.1725 87.4549 30.813 87.9711 30.3522L89.6856 32.675C89.0403 33.1727 88.432 33.5783 87.8605 33.8917C87.289 34.205 86.6899 34.4263 86.0631 34.5553C85.4548 34.7028 84.7542 34.7765 83.9616 34.7765ZM86.6715 27.1169C86.7083 26.9694 86.736 26.8219 86.7544 26.6744C86.7913 26.527 86.8097 26.3887 86.8097 26.2597C86.8097 25.8725 86.736 25.513 86.5885 25.1812C86.441 24.831 86.2382 24.5268 85.9802 24.2687C85.7221 24.0106 85.4087 23.817 85.04 23.688C84.6897 23.5405 84.2842 23.4668 83.8233 23.4668C83.1412 23.4668 82.5697 23.605 82.1089 23.8816C81.648 24.1581 81.2977 24.5176 81.0581 24.96C80.8369 25.384 80.6986 25.8264 80.6433 26.2873H87.8329L86.6715 27.1169ZM92.2853 34.5V20.8675H95.7418V23.9645L95.1888 24.0198C95.4284 23.1903 95.7787 22.5266 96.2396 22.0289C96.7004 21.5311 97.235 21.1717 97.8434 20.9504C98.4517 20.7108 99.0785 20.591 99.7237 20.591C101.272 20.591 102.48 21.0334 103.346 21.9183C104.231 22.7847 104.673 24.0106 104.673 25.596V34.5H101.217V26.868C101.217 25.725 101.014 24.8955 100.609 24.3793C100.203 23.8447 99.567 23.5774 98.7006 23.5774C98.0369 23.5774 97.4839 23.7341 97.0415 24.0475C96.6175 24.3424 96.2949 24.8125 96.0736 25.4577C95.8524 26.103 95.7418 26.9417 95.7418 27.9741V34.5H92.2853ZM115.968 34.9424C114.143 34.9424 112.53 34.5184 111.129 33.6704C109.746 32.8224 108.668 31.6426 107.894 30.131C107.119 28.6193 106.732 26.8588 106.732 24.8494C106.732 22.84 107.119 21.0887 107.894 19.5955C108.668 18.0838 109.746 16.904 111.129 16.056C112.53 15.208 114.143 14.784 115.968 14.784C118.014 14.784 119.775 15.3002 121.25 16.3325C122.743 17.3464 123.812 18.7475 124.457 20.5357L121.084 21.78C120.678 20.6555 120.033 19.7798 119.148 19.153C118.282 18.5263 117.222 18.2129 115.968 18.2129C114.825 18.2129 113.82 18.4802 112.954 19.0148C112.106 19.5494 111.452 20.3144 110.991 21.3099C110.548 22.287 110.327 23.4668 110.327 24.8494C110.327 26.232 110.548 27.421 110.991 28.4165C111.452 29.412 112.106 30.177 112.954 30.7117C113.82 31.2463 114.825 31.5136 115.968 31.5136C117.222 31.5136 118.282 31.2002 119.148 30.5734C120.033 29.9466 120.678 29.071 121.084 27.9464L124.457 29.1631C123.812 30.9513 122.743 32.3616 121.25 33.3939C119.775 34.4263 118.014 34.9424 115.968 34.9424ZM135.131 34.5L134.854 32.4537V25.9002C134.854 25.089 134.596 24.4899 134.08 24.1028C133.582 23.6972 132.9 23.4944 132.034 23.4944C131.315 23.4944 130.577 23.6419 129.821 23.9369C129.084 24.2134 128.43 24.6097 127.858 25.1259L126.116 22.7755C127.075 22.0012 128.052 21.4482 129.047 21.1163C130.061 20.7661 131.149 20.591 132.31 20.591C134.19 20.591 135.656 21.061 136.707 22.0012C137.758 22.9414 138.283 24.241 138.283 25.9002V34.5H135.131ZM131.01 34.7765C130.015 34.7765 129.121 34.5922 128.328 34.2235C127.554 33.8548 126.936 33.3294 126.475 32.6473C126.033 31.9652 125.812 31.1817 125.812 30.2969C125.812 29.5042 125.969 28.8313 126.282 28.2783C126.614 27.7068 127.047 27.2736 127.582 26.9786C128.042 26.7021 128.549 26.5085 129.102 26.3979C129.674 26.2873 130.282 26.232 130.927 26.232H135.158V28.776H131.425C131.13 28.776 130.835 28.8037 130.54 28.859C130.264 28.8958 130.024 28.9972 129.821 29.1631C129.637 29.2922 129.499 29.4581 129.407 29.6609C129.314 29.8452 129.268 30.0572 129.268 30.2969C129.268 30.813 129.471 31.2278 129.877 31.5412C130.282 31.8546 130.826 32.0113 131.508 32.0113C132.117 32.0113 132.67 31.8823 133.167 31.6242C133.683 31.3477 134.089 30.979 134.384 30.5181C134.697 30.0388 134.854 29.495 134.854 28.8866L135.767 30.7117C135.527 31.6703 135.158 32.4537 134.661 33.0621C134.181 33.652 133.628 34.0852 133.001 34.3617C132.375 34.6383 131.711 34.7765 131.01 34.7765ZM140.935 34.5V20.8675H144.391V24.5729L143.866 24.6282C143.921 23.8355 144.161 23.135 144.585 22.5266C145.009 21.9183 145.525 21.4482 146.133 21.1163C146.76 20.7661 147.396 20.591 148.041 20.591C148.502 20.591 148.935 20.6555 149.341 20.7845C149.765 20.8951 150.198 21.0887 150.641 21.3652L148.982 24.4623C148.779 24.3517 148.521 24.2503 148.207 24.1581C147.894 24.0659 147.58 24.0198 147.267 24.0198C146.898 24.0198 146.539 24.0843 146.189 24.2134C145.857 24.3424 145.553 24.5452 145.276 24.8217C145.018 25.0983 144.806 25.467 144.64 25.9278C144.566 26.1859 144.502 26.5177 144.447 26.9233C144.41 27.3104 144.391 27.8819 144.391 28.6377V34.5H140.935ZM156.597 34.7765C155.399 34.7765 154.367 34.4723 153.5 33.864C152.634 33.2372 151.961 32.3892 151.482 31.32C151.021 30.2323 150.79 29.0157 150.79 27.6699C150.79 26.1767 151.048 24.9047 151.565 23.8539C152.099 22.8031 152.809 22.0012 153.694 21.4482C154.579 20.8767 155.547 20.591 156.597 20.591C157.335 20.591 158.017 20.7477 158.644 21.061C159.289 21.356 159.842 21.8077 160.303 22.416C160.764 23.0243 161.068 23.7986 161.215 24.7388L160.524 24.5452V15.2264H163.925V34.5H160.524V30.8499L161.326 30.4628C161.105 31.532 160.745 32.3892 160.247 33.0344C159.768 33.6612 159.206 34.1129 158.561 34.3894C157.934 34.6475 157.279 34.7765 156.597 34.7765ZM157.538 31.6242C158.22 31.6242 158.8 31.4583 159.28 31.1264C159.777 30.7946 160.155 30.3337 160.413 29.7438C160.69 29.1539 160.828 28.4626 160.828 27.6699C160.828 26.8772 160.69 26.1859 160.413 25.596C160.155 25.0061 159.777 24.5544 159.28 24.241C158.8 23.9092 158.22 23.7433 157.538 23.7433C156.874 23.7433 156.293 23.9092 155.795 24.241C155.298 24.5544 154.911 25.0061 154.634 25.596C154.376 26.1675 154.247 26.8588 154.247 27.6699C154.247 28.481 154.376 29.1816 154.634 29.7715C154.911 30.3614 155.298 30.8223 155.795 31.1541C156.293 31.4675 156.874 31.6242 157.538 31.6242ZM165.452 34.5L171.867 24.877L165.452 15.2264H169.738L174.328 22.3883L178.919 15.2264H183.177L176.789 24.877L183.232 34.5H178.946L174.301 27.4763L169.711 34.5H165.452Z" fill="#373737"/>
</svg>
