<svg width="1440" height="805" viewBox="0 0 1440 805" fill="none" xmlns="http://www.w3.org/2000/svg">
<path d="M1781.61 6.87158L1764.55 1M1781.61 6.87158H1731.05M1781.61 6.87158L1799.23 12.9371M1781.61 6.87158H1817.41M1764.55 1L1770.76 1.00229L1776.9 1.015L1782.91 1.05075L1788.74 1.12115L1794.31 1.23539L1799.58 1.40736L1804.46 1.64624L1809 1.95088L1812.89 2.37211L1816.44 2.86026L1817.41 3.03125V6.87158M1764.55 1H1714.81M1714.81 1H1665.07M1714.81 1L1731.05 6.87158M1665.07 1H1615.33M1665.07 1L1680.5 6.87158M1615.33 1H1565.59M1615.33 1L1629.95 6.87158M1565.59 1H1515.85M1565.59 1L1579.4 6.87158M1515.85 1H1466.11M1515.85 1L1528.84 6.87158M1466.11 1H1416.37M1466.11 1L1478.29 6.87158M1416.37 1H1366.63M1416.37 1L1427.74 6.87158M1366.63 1H1316.88M1366.63 1L1377.19 6.87158M1316.88 1H1267.14M1316.88 1L1326.63 6.87158M1267.14 1H1217.4M1267.14 1L1276.08 6.87158M1217.4 1H1167.66M1217.4 1L1225.53 6.87158M1167.66 1H1117.92M1167.66 1L1169.47 2.45058L1172.21 4.64668L1174.97 6.87158M1117.92 1H1068.18M1117.92 1L1119.53 2.45058L1124.42 6.87158M1068.18 1H1018.44M1068.18 1L1073.87 6.87158M1018.44 1H968.702M1018.44 1L1020.25 3.1799L1022.08 5.38522L1022.7 6.12726L1023.32 6.87158M968.702 1H918.961M968.702 1L970.209 3.1799L970.717 3.91154L971.225 4.64668L972.764 6.87158M918.961 1H869.221M918.961 1L922.211 6.87158M869.221 1L869.522 1.72355L869.823 2.45058L871.349 6.12726L871.658 6.87158M869.221 1H819.481M819.481 1H769.74M819.481 1L821.106 6.87158M769.74 1H720M769.74 1L770.042 3.1799L770.553 6.87158M720 1H670.26M720 1V6.87158M670.26 1H620.519M670.26 1L669.958 3.1799L669.447 6.87158M620.519 1H570.779M620.519 1L618.894 6.87158M570.779 1L570.478 1.72355L570.177 2.45058L568.651 6.12726L568.342 6.87158M570.779 1H521.039M521.039 1H471.297M521.039 1L518.201 6.12726L517.789 6.87158M471.297 1H421.557M471.297 1L469.791 3.1799L469.283 3.91154L468.264 5.38522L467.751 6.12726L467.236 6.87158M421.557 1H371.817M421.557 1L419.749 3.1799L417.917 5.38522L417.301 6.12726L416.683 6.87158M371.817 1H322.077M371.817 1L366.131 6.87158M322.077 1H272.336M322.077 1L320.472 2.45058L315.578 6.87158M272.336 1H222.596M272.336 1L265.026 6.87158M222.596 1H172.856M222.596 1L214.473 6.87158M172.856 1H123.115M172.856 1L163.92 6.87158M123.115 1H73.3746M123.115 1L113.367 6.87158M73.3746 1H23.6345M73.3746 1L62.8143 6.87158M23.6345 1H-26.1055M23.6345 1L12.2615 6.87158M-26.1055 1H-75.8467M-26.1055 1L-38.2913 6.87158M-75.8467 1H-125.587M-75.8467 1L-88.8442 6.87158M-125.587 1H-175.327M-125.587 1L-139.397 6.87158M-175.327 1H-225.068M-175.327 1L-189.95 6.87158M-225.068 1H-274.808M-225.068 1L-240.501 6.87158M-274.808 1H-324.548M-274.808 1L-291.054 6.87158M-324.548 1L-330.755 1.00229L-336.899 1.015L-342.914 1.05075L-348.74 1.12115L-354.314 1.23539L-359.576 1.40736L-364.463 1.64624L-368.999 1.95088L-372.891 2.37211L-376.435 2.86026L-377.409 3.03128V6.87158M-324.548 1L-341.607 6.87158M-240.501 6.87158H-189.95M-240.501 6.87158H-291.054M-240.501 6.87158L-256.449 12.9371M-189.95 6.87158L-205.057 12.9371M-189.95 6.87158H-139.397M-38.2913 6.87158H12.2615M-38.2913 6.87158H-88.8442M-38.2913 6.87158L-41.3995 8.36949L-50.8807 12.9371M12.2615 6.87158L0.511223 12.9371M12.2615 6.87158H62.8143M163.92 6.87158H214.473M163.92 6.87158H113.367M163.92 6.87158L161.641 8.36949L160.493 9.12192L154.687 12.9371M214.473 6.87158L213.438 7.61823L212.4 8.36949L206.08 12.9371M214.473 6.87158H265.026M366.131 6.87158L365.407 7.61823L360.256 12.9371M366.131 6.87158H416.683M366.131 6.87158H315.578M416.683 6.87158L415.44 8.36949L414.814 9.12192L414.186 9.87895L411.648 12.9371M416.683 6.87158H467.236M568.342 6.87158H618.894M568.342 6.87158H517.789M568.342 6.87158L565.824 12.9371M618.894 6.87158L618.687 7.61823L618.481 8.36949L618.271 9.12192L617.64 11.4011L617.216 12.9371M618.894 6.87158H669.447M770.553 6.87158H821.106M770.553 6.87158H720M770.553 6.87158L771.392 12.9371M821.106 6.87158L821.312 7.61823L821.519 8.36949L821.729 9.12192L822.784 12.9371M821.106 6.87158H871.658M972.764 6.87158H1023.32M972.764 6.87158H922.211M972.764 6.87158L973.8 8.36949L975.899 11.4011L976.428 12.1674L976.961 12.9371M1023.32 6.87158L1024.56 8.36949L1025.19 9.12192L1025.81 9.87895L1028.35 12.9371M1023.32 6.87158H1073.87M1174.97 6.87158H1225.53M1174.97 6.87158H1124.42M1174.97 6.87158L1176.84 8.36949L1177.78 9.12192L1182.53 12.9371M1225.53 6.87158L1226.56 7.61823L1227.6 8.36949L1233.92 12.9371M1225.53 6.87158H1276.08M1377.19 6.87158H1427.74M1377.19 6.87158H1326.63M1377.19 6.87158L1379.88 8.36949L1381.24 9.12192L1388.1 12.9371M1427.74 6.87158L1439.49 12.9371M1427.74 6.87158H1478.29M1579.4 6.87158H1629.95M1579.4 6.87158H1528.84M1579.4 6.87158L1593.66 12.9371M1629.95 6.87158L1645.06 12.9371M1629.95 6.87158H1680.5M-377.586 61.7794H-377.409M-326.704 61.7794L-307.403 54.0302M-326.704 61.7794L-346.744 69.8251M-326.704 61.7794H-268.554M-326.704 61.7794H-377.409M-307.403 54.0302H-364.481M-307.403 54.0302L-288.801 46.5615M-307.403 54.0302H-250.326M-364.481 54.0302L-344.846 46.5615M-364.481 54.0302H-377.409M-364.481 54.0302L-377.409 58.9464M-307.634 32.4064H-253.548M-307.634 32.4064L-289.987 25.6935M-307.634 32.4064H-361.719M-307.634 32.4064L-325.91 39.3581M-253.548 32.4064L-236.829 25.6935M-253.548 32.4064L-270.861 39.3581M-253.548 32.4064H-199.462M-289.987 25.6935H-236.829M-289.987 25.6935L-272.935 19.208M-289.987 25.6935H-343.144M-236.829 25.6935H-183.672M-236.829 25.6935L-220.675 19.208M-377.966 184.093H-377.409M-331.045 184.093L-306.156 171.245M-331.045 184.093L-357.17 197.58M-331.045 184.093H-255.969M-331.045 184.093H-377.409M-306.156 171.245L-282.419 158.992M-306.156 171.245H-232.86M-306.156 171.245H-377.409M-354.02 158.992H-282.419M-354.02 158.992L-329.738 147.293M-354.02 158.992H-377.409M-354.02 158.992L-377.409 170.261M-306.53 136.11H-238.095M-306.53 136.11L-284.326 125.413M-306.53 136.11H-374.965M-306.53 136.11L-329.738 147.293M-238.095 136.11L-217.37 125.413M-238.095 136.11L-259.756 147.293M-238.095 136.11H-169.659M-284.326 125.413H-217.37M-284.326 125.413H-351.28M-284.326 125.413L-263.061 115.167M-217.37 125.413L-197.524 115.167M-217.37 125.413H-150.416M-223.125 95.9254H-160.25M-223.125 95.9254L-204.349 86.8791M-223.125 95.9254H-285.999M-223.125 95.9254L-242.679 105.347M-160.25 95.9254L-142.726 86.8791M-160.25 95.9254L-178.5 105.347M-160.25 95.9254H-97.3742M-204.349 86.8791H-142.726M-204.349 86.8791H-265.972M-204.349 86.8791L-186.305 78.1859M-142.726 86.8791L-125.885 78.1859M-142.726 86.8791H-81.1017M-152.254 61.7794H-94.1037M-152.254 61.7794L-136.17 54.0302M-152.254 61.7794H-210.404M-152.254 61.7794L-168.954 69.8251M-94.1037 61.7794L-79.0921 54.0302M-94.1037 61.7794L-109.69 69.8251M-94.1037 61.7794H-35.9536M-136.17 54.0302H-79.0921M-136.17 54.0302H-193.248M-136.17 54.0302L-120.668 46.5615M-79.0921 54.0302L-64.6234 46.5615M-79.0921 54.0302H-22.0143M-91.2905 32.4064H-37.2042M-91.2905 32.4064L-77.358 25.6935M-91.2905 32.4064H-145.376M-91.2905 32.4064L-105.718 39.3581M-37.2042 32.4064L-24.2011 25.6935M-37.2042 32.4064L-50.6703 39.3581M-37.2042 32.4064H16.882M-77.358 25.6935H-24.2011M-77.358 25.6935L-63.8952 19.208M-77.358 25.6935H-130.515M-24.2011 25.6935H28.957M-24.2011 25.6935L-11.6357 19.208M-338.946 406.833L-303.918 381.518M-338.946 406.833L-376.457 433.942M-338.946 406.833H-233.052M-338.946 406.833H-377.409M-303.918 381.518L-271.132 357.823M-303.918 381.518H-201.526M-303.918 381.518H-377.409M-304.629 314.712H-211.481M-304.629 314.712L-274.696 295.046M-304.629 314.712L-336.42 335.599M-304.629 314.712H-377.409M-211.481 314.712L-184.27 295.046M-211.481 314.712L-240.381 335.599M-211.481 314.712H-118.332M-274.696 295.046H-184.27M-274.696 295.046H-365.123M-274.696 295.046L-246.462 276.496M-184.27 295.046L-158.602 276.496M-184.27 295.046H-93.8419M-194.545 242.385H-111.404M-194.545 242.385L-170.623 226.669M-194.545 242.385H-277.685M-194.545 242.385L-219.787 258.971M-111.404 242.385L-89.6569 226.669M-111.404 242.385L-134.352 258.971M-111.404 242.385H-28.2638M-170.623 226.669H-89.6569M-170.623 226.669H-251.589M-170.623 226.669L-147.921 211.753M-89.6569 226.669L-69.0188 211.753M-89.6569 226.669H-8.69211M-105.821 184.093H-30.7455M-105.821 184.093L-86.2653 171.245M-105.821 184.093H-180.895M-105.821 184.093L-126.347 197.58M-30.7455 184.093L-12.9686 171.245M-30.7455 184.093L-49.4072 197.58M-30.7455 184.093H44.3287M-86.2653 171.245H-12.9686M-86.2653 171.245H-159.562M-86.2653 171.245L-67.615 158.992M-12.9686 171.245L3.98636 158.992M-12.9686 171.245H60.328M-32.7883 136.11H35.6466M-32.7883 136.11L-16.5055 125.413M-32.7883 136.11H-101.224M-32.7883 136.11L-49.8084 147.293M35.6466 136.11L50.4502 125.413M35.6466 136.11L20.1743 147.293M35.6466 136.11H104.081M-16.5055 125.413H50.4502M-16.5055 125.413H-83.46M-16.5055 125.413L-0.911973 115.167M50.4502 125.413L64.6262 115.167M50.4502 125.413H117.405M28.3751 95.9254H91.2498M28.3751 95.9254L42.1442 86.8791M28.3751 95.9254H-34.4996M28.3751 95.9254L14.0356 105.347M91.2498 95.9254L92.8433 94.7748L103.767 86.8791M91.2498 95.9254L78.2146 105.347M91.2498 95.9254H154.126M42.1442 86.8791H103.767M42.1442 86.8791H-19.4788M42.1442 86.8791L55.376 78.1859M103.767 86.8791L115.796 78.1859M103.767 86.8791H165.391M80.3466 61.7794H138.498M80.3466 61.7794L92.1426 54.0302M80.3466 61.7794H22.1965M80.3466 61.7794L68.1002 69.8251M138.498 61.7794L149.22 54.0302M138.498 61.7794L134.372 64.7614L127.364 69.8251M138.498 61.7794H196.648M92.1426 54.0302H149.22M92.1426 54.0302H35.0647M92.1426 54.0302L103.51 46.5615M149.22 54.0302L159.554 46.5615M149.22 54.0302H206.298M125.053 32.4064H179.14M125.053 32.4064L135.271 25.6935M125.053 32.4064H70.9683M125.053 32.4064L114.474 39.3581M179.14 32.4064L186.137 27.3507L187.285 26.5198L188.429 25.6935M179.14 32.4064L169.521 39.3581M179.14 32.4064H233.226M135.271 25.6935H188.429M135.271 25.6935L145.143 19.208M135.271 25.6935H82.1138M188.429 25.6935H241.586M188.429 25.6935L197.402 19.208M-300.579 695.211H-154.781M-300.579 695.211L-254.671 647.813M-300.579 695.211L-351.025 747.295M-300.579 695.211L-377.409 695.212M-154.781 695.211L-115.431 647.813M-154.781 695.211L-198.021 747.295M-154.781 695.211H-8.9848M-254.671 647.813H-115.431M-254.671 647.813L-212.714 604.497M-254.671 647.813H-377.409M-115.431 647.813L-79.4693 604.497M-115.431 647.813H23.8072M-138.78 528.163H-16.0962M-138.78 528.163L-106.04 494.361M-138.78 528.163H-261.462M-138.78 528.163L-174.221 564.755M-16.0962 528.163L11.9654 494.361M-16.0962 528.163L-46.475 564.755M-16.0962 528.163H106.586M-106.04 494.361H11.9654M-106.04 494.361H-224.046M-106.04 494.361L-75.705 463.043M11.9654 494.361L37.9672 463.043M11.9654 494.361H129.971M-21.2621 406.833H84.6322M-21.2621 406.833L3.25816 381.518M-21.2621 406.833H-127.157M-21.2621 406.833L-47.5199 433.942M84.6322 406.833L105.65 381.518M84.6322 406.833L62.1262 433.942M84.6322 406.833H190.526M3.25816 381.518H105.65M3.25816 381.518H-99.1347M3.25816 381.518L26.2077 357.823M105.65 381.518L125.321 357.823M105.65 381.518H208.042M67.963 314.712H161.111M67.963 314.712L87.0122 295.046M67.963 314.712H-25.1841M67.963 314.712L47.7329 335.599M161.111 314.712L177.439 295.046M161.111 314.712L143.771 335.599M161.111 314.712H254.26M87.0122 295.046H177.439M87.0122 295.046H-3.41544M87.0122 295.046L104.979 276.496M177.439 295.046L192.839 276.496M177.439 295.046H267.865M138.017 242.385H221.158M138.017 242.385L153.24 226.669M138.017 242.385H54.8764M138.017 242.385L121.953 258.971M221.158 242.385L234.206 226.669M221.158 242.385L207.389 258.971M221.158 242.385H304.298M153.24 226.669H234.206M153.24 226.669H72.2738M153.24 226.669L167.687 211.753M234.206 226.669L246.588 211.753M234.206 226.669H315.172M194.478 184.093H269.552M194.478 184.093L206.922 171.245M194.478 184.093H119.403M194.478 184.093L181.416 197.58M269.552 184.093L280.219 171.245M269.552 184.093L258.355 197.58M269.552 184.093H344.627M206.922 171.245H280.219M206.922 171.245H133.625M206.922 171.245L218.79 158.992M280.219 171.245L290.392 158.992M280.219 171.245H353.516M240.952 136.11H309.388M240.952 136.11L251.315 125.413M240.952 136.11H172.517M240.952 136.11L230.122 147.293M309.388 136.11L318.269 125.413M309.388 136.11L300.105 147.293M309.388 136.11H377.823M251.315 125.413H318.269M251.315 125.413H184.359M251.315 125.413L261.239 115.167M318.269 125.413L326.776 115.167M318.269 125.413H385.225M279.875 95.9254H342.751M279.875 95.9254L288.637 86.8791M279.875 95.9254H217M279.875 95.9254L270.749 105.347M342.751 95.9254L341.789 97.0817L334.928 105.347M342.751 95.9254L350.26 86.8791M342.751 95.9254H405.626M288.637 86.8791H350.26M288.637 86.8791H227.014M288.637 86.8791L297.057 78.1859M350.26 86.8791L357.478 78.1859M350.26 86.8791H411.884M312.948 61.7794H371.098M312.948 61.7794L320.454 54.0302M312.948 61.7794H254.798M312.948 61.7794L305.155 69.8251M371.098 61.7794L377.532 54.0302M371.098 61.7794L368.623 64.7614L366.953 66.7728L364.419 69.8251M371.098 61.7794H429.248M320.454 54.0302H377.532M320.454 54.0302H263.376M320.454 54.0302L327.688 46.5615M377.532 54.0302L379.884 51.1971L381.435 49.3299L383.733 46.5615M377.532 54.0302H434.61M341.399 32.4064H395.484M341.399 32.4064L346.296 27.3507L347.9 25.6935M341.399 32.4064H287.312M341.399 32.4064L335.519 38.4753L334.665 39.3581M395.484 32.4064L399.682 27.3507L400.371 26.5198L401.058 25.6935M395.484 32.4064L392.623 35.8511L389.713 39.3581M395.484 32.4064H449.57M347.9 25.6935H401.058M347.9 25.6935L354.182 19.208M347.9 25.6935H294.743M401.058 25.6935H454.214M401.058 25.6935L406.442 19.208M282.609 695.211H428.406M282.609 695.211L302.284 647.813M282.609 695.211H136.813M282.609 695.211L260.989 747.295M428.406 695.211L441.523 647.813M428.406 695.211L413.993 747.295M428.406 695.211H574.203M302.284 647.813H441.523M302.284 647.813H163.045M302.284 647.813L320.265 604.497M441.523 647.813L453.51 604.497M441.523 647.813H580.762M351.952 528.163H474.634M351.952 528.163L365.983 494.361M351.952 528.163H229.268M351.952 528.163L336.762 564.755M474.634 528.163L483.988 494.361M474.634 528.163L464.508 564.755M474.634 528.163H597.318M365.983 494.361H483.988M365.983 494.361H247.977M365.983 494.361L378.984 463.043M483.988 494.361L492.656 463.043M483.988 494.361H601.994M402.316 406.833H508.21M402.316 406.833L412.825 381.518M402.316 406.833H296.422M402.316 406.833L391.063 433.942M508.21 406.833L515.217 381.518M508.21 406.833L500.709 433.942M508.21 406.833H614.106M412.825 381.518H515.217M412.825 381.518H310.433M412.825 381.518L422.66 357.823M515.217 381.518L521.774 357.823M515.217 381.518H617.608M440.556 314.712H533.703M440.556 314.712L448.719 295.046M440.556 314.712H347.408M440.556 314.712L431.886 335.599M533.703 314.712L539.146 295.046M533.703 314.712L527.924 335.599M533.703 314.712H626.852M448.719 295.046H539.146M448.719 295.046H358.293M448.719 295.046L456.419 276.496M539.146 295.046L544.28 276.496M539.146 295.046H629.574M470.578 242.385H553.72M470.578 242.385L477.102 226.669M470.578 242.385H387.438M470.578 242.385L463.694 258.971M553.72 242.385L558.068 226.669M553.72 242.385L549.13 258.971M553.72 242.385H636.86M477.102 226.669H558.068M477.102 226.669H396.138M477.102 226.669L483.295 211.753M558.068 226.669L562.196 211.753M558.068 226.669H639.034M494.776 184.093H569.85M494.776 184.093L500.109 171.245M494.776 184.093H419.702M494.776 184.093L489.178 197.58M569.85 184.093L573.407 171.245M569.85 184.093L566.118 197.58M569.85 184.093H644.926M500.109 171.245H573.407M500.109 171.245H426.812M500.109 171.245L502.045 166.583L505.196 158.992M573.407 171.245L576.797 158.992M573.407 171.245H646.703M514.694 136.11H583.129M514.694 136.11L519.135 125.413M514.694 136.11H446.258M514.694 136.11L511.233 144.45L510.052 147.293M583.129 136.11L584.255 132.044L586.09 125.413M583.129 136.11L580.035 147.293M583.129 136.11H651.565M519.135 125.413L519.676 124.107L523.388 115.167M519.135 125.413H586.09M519.135 125.413H452.18M586.09 125.413L587.168 121.519L587.522 120.235L587.877 118.958L588.925 115.167M586.09 125.413H653.046M531.375 95.9254H594.25M531.375 95.9254L533.271 91.3567L533.74 90.2292L534.205 89.1064L534.669 87.9904L535.13 86.8791M531.375 95.9254H468.5M531.375 95.9254L527.464 105.347M594.25 95.9254L596.137 89.1064L596.447 87.9904L596.753 86.8791M594.25 95.9254L591.643 105.347M594.25 95.9254H657.125M535.13 86.8791H596.753M535.13 86.8791H473.507M535.13 86.8791L537.403 81.4056L537.85 80.3266L538.739 78.1859M596.753 86.8791L598.268 81.4056L598.567 80.3266L598.863 79.2534L599.159 78.1859M596.753 86.8791H658.377M545.55 61.7794H603.7M545.55 61.7794L548.766 54.0302M545.55 61.7794H487.398M545.55 61.7794L544.726 63.762L543.476 66.7728L542.209 69.8251M603.7 61.7794L603.425 62.7684L601.755 68.8027L601.473 69.8251M603.7 61.7794L605.844 54.0302M603.7 61.7794H661.85M548.766 54.0302H605.844M548.766 54.0302H491.689M548.766 54.0302L551.867 46.5615M605.844 54.0302L606.628 51.1971L606.887 50.2612L607.145 49.3299L607.911 46.5615M605.844 54.0302H662.922M557.742 32.4064H611.828M557.742 32.4064L559.841 27.3507L560.528 25.6935M557.742 32.4064H503.656M557.742 32.4064L556.671 34.9844L556.312 35.8511L555.95 36.7224L554.856 39.3581M611.828 32.4064L612.064 31.5547L612.532 29.8618L612.997 28.1839L613.685 25.6935M611.828 32.4064L610.874 35.8511L610.634 36.7224L610.148 38.4753L609.905 39.3581M611.828 32.4064H665.914M560.528 25.6935H613.685M560.528 25.6935L562.889 20.0065L563.221 19.208M560.528 25.6935H507.371M613.685 25.6935L613.914 24.8707L614.14 24.0513L614.366 23.2354L614.59 22.423L615.259 20.0065L615.481 19.208M613.685 25.6935H666.843M865.796 695.211H1011.59M865.796 695.211L859.238 647.813M865.796 695.211H720M865.796 695.211L873.004 747.295M1011.59 695.211L998.478 647.813M1011.59 695.211L1026.01 747.295M1011.59 695.211H1157.39M859.238 647.813H998.478M859.238 647.813H720M859.238 647.813L853.245 604.497M998.478 647.813L986.49 604.497M998.478 647.813H1137.72M842.682 528.163H965.366M842.682 528.163L838.006 494.361M842.682 528.163H720M842.682 528.163L847.746 564.755M965.366 528.163L956.011 494.361M965.366 528.163L975.492 564.755M965.366 528.163H1088.05M838.006 494.361H956.011M838.006 494.361H720M838.006 494.361L833.672 463.043M956.011 494.361L947.344 463.043M956.011 494.361H1074.02M825.894 406.833H931.79M825.894 406.833L822.392 381.518M825.894 406.833H720M825.894 406.833L829.646 433.942M931.79 406.833L924.783 381.518M931.79 406.833L939.291 433.942M931.79 406.833H1037.68M822.392 381.518H924.783M822.392 381.518H720M822.392 381.518L819.113 357.823M924.783 381.518L918.226 357.823M924.783 381.518H1027.18M813.148 314.712H906.297M813.148 314.712L810.426 295.046M813.148 314.712H720M813.148 314.712L816.038 335.599M906.297 314.712L900.854 295.046M906.297 314.712L912.076 335.599M906.297 314.712H999.444M810.426 295.046H900.854M810.426 295.046H720M810.426 295.046L807.86 276.496M900.854 295.046L895.72 276.496M900.854 295.046H991.281M803.14 242.385H886.28M803.14 242.385L800.966 226.669M803.14 242.385H720M803.14 242.385L805.436 258.971M886.28 242.385L881.932 226.669M886.28 242.385L890.87 258.971M886.28 242.385H969.422M800.966 226.669H881.932M800.966 226.669H720M800.966 226.669L798.901 211.753M881.932 226.669L877.804 211.753M881.932 226.669H962.898M795.074 184.093H870.149M795.074 184.093L793.297 171.245M795.074 184.093H720M795.074 184.093L796.941 197.58M870.149 184.093L866.593 171.245M870.149 184.093L873.882 197.58M870.149 184.093H945.224M793.297 171.245H866.593M793.297 171.245H720M793.297 171.245L791.601 158.992M866.593 171.245L863.203 158.992M866.593 171.245H939.891M788.435 136.11H856.871M788.435 136.11L786.955 125.413M788.435 136.11H720M788.435 136.11L789.983 147.293M856.871 136.11L854.272 126.725L853.91 125.413M856.871 136.11L859.965 147.293M856.871 136.11H925.306M786.955 125.413L786.775 124.107L785.537 115.167M786.955 125.413H853.91M786.955 125.413H720M853.91 125.413L852.832 121.519L852.478 120.235L852.123 118.958L851.075 115.167M853.91 125.413H920.865M782.875 95.9254H845.75M782.875 95.9254L781.623 86.8791M782.875 95.9254H720M782.875 95.9254L783.357 99.4128L783.521 100.588L783.683 101.768L784.012 104.148L784.179 105.347M845.75 95.9254L843.863 89.1064L843.246 86.8791M845.75 95.9254L848.357 105.347M845.75 95.9254H908.625M781.623 86.8791H843.246M781.623 86.8791H720M781.623 86.8791L780.42 78.1859M843.246 86.8791L841.732 81.4056L841.433 80.3266L841.137 79.2534L840.841 78.1859M843.246 86.8791H904.87M778.15 61.7794H836.3M778.15 61.7794L777.078 54.0302M778.15 61.7794H720M778.15 61.7794L779.264 69.8251M836.3 61.7794L836.575 62.7684L838.245 68.8027L838.527 69.8251M836.3 61.7794L834.156 54.0302M836.3 61.7794H894.45M777.078 54.0302H834.156M777.078 54.0302H720M777.078 54.0302L776.044 46.5615M834.156 54.0302L833.371 51.1971L833.113 50.2612L832.855 49.3299L832.089 46.5615M834.156 54.0302H891.233M774.086 32.4064H828.173M774.086 32.4064L773.157 25.6935M774.086 32.4064H720M774.086 32.4064L775.048 39.3581M828.173 32.4064L827.936 31.5547L827.467 29.8618L827.235 29.0205L826.772 27.3507L826.543 26.5198L826.314 25.6935M828.173 32.4064L829.126 35.8511L829.366 36.7224L829.852 38.4753L830.095 39.3581M828.173 32.4064H882.258M773.157 25.6935L773.044 24.8707L772.929 24.0513L772.817 23.2354L772.26 19.208M773.157 25.6935H826.314M773.157 25.6935H720M826.314 25.6935H879.472M826.314 25.6935L825.86 24.0513L825.634 23.2354L825.41 22.423L824.741 20.0065L824.519 19.208M1448.98 695.211H1594.78M1448.98 695.211L1416.19 647.813M1448.98 695.211H1303.19M1448.98 695.211L1485.02 747.295M1594.78 695.211L1555.43 647.813M1594.78 695.211L1638.02 747.295M1594.78 695.211H1740.58M1416.19 647.813H1555.43M1416.19 647.813H1276.95M1416.19 647.813L1386.22 604.497M1555.43 647.813L1519.47 604.497M1555.43 647.813H1694.67M1333.41 528.163H1456.1M1333.41 528.163L1310.03 494.361M1333.41 528.163H1210.73M1333.41 528.163L1358.73 564.755M1456.1 528.163L1428.03 494.361M1456.1 528.163L1486.48 564.755M1456.1 528.163H1578.78M1310.03 494.361H1428.03M1310.03 494.361H1192.02M1310.03 494.361L1288.36 463.043M1428.03 494.361L1402.03 463.043M1428.03 494.361H1546.04M1249.47 406.833H1355.37M1249.47 406.833L1231.96 381.518M1249.47 406.833H1143.58M1249.47 406.833L1268.23 433.942M1355.37 406.833L1334.35 381.518M1355.37 406.833L1377.87 433.942M1355.37 406.833H1461.26M1231.96 381.518H1334.35M1231.96 381.518H1129.57M1231.96 381.518L1215.57 357.823M1334.35 381.518L1314.68 357.823M1334.35 381.518H1436.74M1185.74 314.712H1278.89M1185.74 314.712L1172.13 295.046M1185.74 314.712H1092.59M1185.74 314.712L1200.19 335.599M1278.89 314.712L1262.56 295.046M1278.89 314.712L1296.23 335.599M1278.89 314.712H1372.04M1172.13 295.046H1262.56M1172.13 295.046H1081.71M1172.13 295.046L1159.3 276.496M1262.56 295.046L1247.16 276.496M1262.56 295.046H1352.99M1135.7 242.385H1218.84M1135.7 242.385L1124.83 226.669M1135.7 242.385H1052.56M1135.7 242.385L1147.18 258.971M1218.84 242.385L1205.79 226.669M1218.84 242.385L1232.61 258.971M1218.84 242.385H1301.98M1124.83 226.669H1205.79M1124.83 226.669H1043.86M1124.83 226.669L1114.51 211.753M1205.79 226.669L1193.41 211.753M1205.79 226.669H1286.76M1095.37 184.093H1170.45M1095.37 184.093L1086.48 171.245M1095.37 184.093H1020.3M1095.37 184.093L1104.7 197.58M1170.45 184.093L1159.78 171.245M1170.45 184.093L1181.64 197.58M1170.45 184.093H1245.52M1086.48 171.245H1159.78M1086.48 171.245H1013.19M1086.48 171.245L1078.01 158.992M1159.78 171.245L1149.61 158.992M1159.78 171.245H1233.08M1062.18 136.11L1063.12 137.481L1064.08 138.859L1069.91 147.293M1062.18 136.11H1130.61M1062.18 136.11L1054.77 125.413M1062.18 136.11H993.742M1130.61 136.11L1121.73 125.413M1130.61 136.11L1139.89 147.293M1130.61 136.11H1199.05M1054.77 125.413H1121.73M1054.77 125.413H987.82M1054.77 125.413L1047.69 115.167M1121.73 125.413L1113.22 115.167M1121.73 125.413H1188.69M1034.37 95.9254H1097.25M1034.37 95.9254L1028.12 86.8791M1034.37 95.9254H971.5M1034.37 95.9254L1040.89 105.347M1097.25 95.9254L1092.52 90.2292L1089.74 86.8791M1097.25 95.9254L1105.07 105.347M1097.25 95.9254H1160.12M1028.12 86.8791H1089.74M1028.12 86.8791H966.493M1028.12 86.8791L1022.84 79.2534L1022.1 78.1859M1089.74 86.8791L1082.52 78.1859M1089.74 86.8791H1151.36M1010.75 61.7794H1068.9M1010.75 61.7794L1009.39 59.8141L1005.39 54.0302M1010.75 61.7794H952.602M1010.75 61.7794L1012.12 63.762L1014.91 67.7849L1016.32 69.8251M1068.9 61.7794L1062.47 54.0302M1068.9 61.7794L1071.38 64.7614L1073.05 66.7728L1075.58 69.8251M1068.9 61.7794H1127.05M1005.39 54.0302H1062.47M1005.39 54.0302H948.311M1005.39 54.0302L1001.5 48.4021L1000.22 46.5615M1062.47 54.0302L1060.12 51.1971L1058.57 49.3299L1056.27 46.5615M1062.47 54.0302H1119.55M990.43 32.4064H1044.52M990.43 32.4064L987.508 28.1839L985.786 25.6935M990.43 32.4064H936.344M990.43 32.4064L995.239 39.3581M1044.52 32.4064L1040.32 27.3507L1039.63 26.5198L1038.94 25.6935M1044.52 32.4064L1047.38 35.8511L1050.29 39.3581M1044.52 32.4064H1098.6M985.786 25.6935H1038.94M985.786 25.6935L983.523 22.423L982.406 20.8086L981.851 20.0065L981.299 19.208M985.786 25.6935H932.629M1038.94 25.6935H1092.1M1038.94 25.6935L1033.56 19.208M1782.05 494.361H1664.05M1782.05 494.361L1743.05 463.043M1782.05 494.361H1817.41M1782.05 494.361L1817.41 522.754M1673.05 406.833H1778.95M1673.05 406.833L1641.53 381.518M1673.05 406.833H1567.16M1673.05 406.833L1706.81 433.942M1778.95 406.833L1743.92 381.518M1778.95 406.833L1816.46 433.942M1778.95 406.833H1817.41M1641.53 381.518H1743.92M1641.53 381.518H1539.13M1641.53 381.518L1612.02 357.823M1743.92 381.518L1711.13 357.823M1743.92 381.518H1817.41M1558.33 314.712H1651.48M1558.33 314.712L1533.84 295.046M1558.33 314.712H1465.18M1558.33 314.712L1584.34 335.599M1651.48 314.712L1624.27 295.046M1651.48 314.712L1680.38 335.599M1651.48 314.712H1744.63M1533.84 295.046H1624.27M1533.84 295.046H1443.42M1533.84 295.046L1510.74 276.496M1624.27 295.046L1598.6 276.496M1624.27 295.046H1714.7M1468.26 242.385H1551.4M1468.26 242.385L1448.69 226.669M1468.26 242.385H1385.12M1468.26 242.385L1488.92 258.971M1551.4 242.385L1529.66 226.669M1551.4 242.385L1574.35 258.971M1551.4 242.385H1634.55M1448.69 226.669H1529.66M1448.69 226.669H1367.73M1448.69 226.669L1430.12 211.753M1529.66 226.669L1509.02 211.753M1529.66 226.669H1610.62M1395.67 184.093H1470.75M1395.67 184.093L1379.67 171.245M1395.67 184.093H1320.6M1395.67 184.093L1412.47 197.58M1470.75 184.093L1452.97 171.245M1470.75 184.093L1489.41 197.58M1470.75 184.093H1545.82M1379.67 171.245H1452.97M1379.67 171.245H1306.38M1379.67 171.245L1364.41 158.992M1452.97 171.245L1436.01 158.992M1452.97 171.245H1526.27M1335.92 136.11H1404.35M1335.92 136.11L1322.6 125.413M1335.92 136.11H1267.48M1335.92 136.11L1349.84 147.293M1404.35 136.11L1389.55 125.413M1404.35 136.11L1419.83 147.293M1404.35 136.11H1472.79M1322.6 125.413H1389.55M1322.6 125.413H1255.64M1322.6 125.413L1309.84 115.167M1389.55 125.413L1375.37 115.167M1389.55 125.413H1456.51M1285.87 95.9254H1348.75M1285.87 95.9254L1274.61 86.8791M1285.87 95.9254H1223M1285.87 95.9254L1297.61 105.347M1348.75 95.9254L1336.23 86.8791M1348.75 95.9254L1361.79 105.347M1348.75 95.9254H1411.62M1274.61 86.8791H1336.23M1274.61 86.8791H1212.99M1274.61 86.8791L1263.78 78.1859M1336.23 86.8791L1324.2 78.1859M1336.23 86.8791H1397.86M1243.35 61.7794H1301.5M1243.35 61.7794L1233.7 54.0302M1243.35 61.7794H1185.2M1243.35 61.7794L1245.82 63.762L1247.06 64.7614L1253.37 69.8251M1301.5 61.7794L1290.78 54.0302M1301.5 61.7794L1312.64 69.8251M1301.5 61.7794H1359.65M1233.7 54.0302H1290.78M1233.7 54.0302H1176.62M1233.7 54.0302L1224.4 46.5615M1290.78 54.0302L1280.45 46.5615M1290.78 54.0302H1347.86M1206.77 32.4064H1260.86M1206.77 32.4064L1198.41 25.6935M1206.77 32.4064H1152.69M1206.77 32.4064L1215.43 39.3581M1260.86 32.4064L1253.86 27.3507L1252.72 26.5198L1251.57 25.6935M1260.86 32.4064L1270.48 39.3581M1260.86 32.4064H1314.95M1198.41 25.6935H1251.57M1198.41 25.6935L1191.33 20.0065L1190.34 19.208M1198.41 25.6935H1145.26M1251.57 25.6935H1304.73M1251.57 25.6935L1242.6 19.208M1800.83 242.385L1772.55 226.669M1800.83 242.385H1717.69M1800.83 242.385L1817.41 251.605M1800.83 242.385H1817.41M1772.55 226.669H1691.59M1772.55 226.669L1745.73 211.753M1772.55 226.669H1817.41M1695.97 184.093H1771.04M1695.97 184.093L1672.86 171.245M1695.97 184.093H1620.9M1695.97 184.093L1720.23 197.58M1771.04 184.093L1746.16 171.245M1771.04 184.093L1797.17 197.58M1771.04 184.093H1817.41M1672.86 171.245H1746.16M1672.86 171.245H1599.56M1672.86 171.245L1650.82 158.992M1746.16 171.245L1722.42 158.992M1746.16 171.245H1817.41M1609.66 136.11H1678.1M1609.66 136.11L1590.42 125.413M1609.66 136.11H1541.22M1609.66 136.11L1629.77 147.293M1678.1 136.11L1657.37 125.413M1678.1 136.11L1699.76 147.293M1678.1 136.11H1746.53M1590.42 125.413H1657.37M1590.42 125.413H1523.46M1590.42 125.413L1571.99 115.167M1657.37 125.413L1637.52 115.167M1657.37 125.413H1724.33M1537.37 95.9254H1600.25M1537.37 95.9254L1521.1 86.8791M1537.37 95.9254H1474.5M1537.37 95.9254L1554.32 105.347M1600.25 95.9254L1582.73 86.8791M1600.25 95.9254L1618.5 105.347M1600.25 95.9254H1663.12M1521.1 86.8791H1582.73M1521.1 86.8791H1459.48M1521.1 86.8791L1505.46 78.1859M1582.73 86.8791L1565.89 78.1859M1582.73 86.8791H1644.35M1475.95 61.7794H1534.1M1475.95 61.7794L1462.01 54.0302M1475.95 61.7794H1417.8M1475.95 61.7794L1490.43 69.8251M1534.1 61.7794L1519.09 54.0302M1534.1 61.7794L1549.69 69.8251M1534.1 61.7794H1592.25M1462.01 54.0302H1519.09M1462.01 54.0302H1404.94M1462.01 54.0302L1448.58 46.5615M1519.09 54.0302L1504.62 46.5615M1519.09 54.0302H1576.17M1423.12 32.4064H1477.2M1423.12 32.4064L1411.04 25.6935M1423.12 32.4064H1369.03M1423.12 32.4064L1435.62 39.3581M1477.2 32.4064L1464.2 25.6935M1477.2 32.4064L1490.67 39.3581M1477.2 32.4064H1531.29M1411.04 25.6935H1464.2M1411.04 25.6935L1399.38 19.208M1411.04 25.6935H1357.89M1464.2 25.6935H1517.36M1464.2 25.6935L1451.64 19.208M1788.87 95.9254L1767.59 86.8791M1788.87 95.9254H1726M1788.87 95.9254L1811.04 105.347M1788.87 95.9254H1817.41M1767.59 86.8791H1705.97M1767.59 86.8791L1747.15 78.1859M1767.59 86.8791H1817.41M1708.55 61.7794H1766.7M1708.55 61.7794L1690.33 54.0302M1708.55 61.7794H1650.4M1708.55 61.7794L1727.48 69.8251M1766.7 61.7794L1747.4 54.0302M1766.7 61.7794L1786.74 69.8251M1766.7 61.7794H1817.41M1690.33 54.0302H1747.4M1690.33 54.0302H1633.25M1690.33 54.0302L1672.76 46.5615M1747.4 54.0302L1728.8 46.5615M1747.4 54.0302H1804.48M1639.46 32.4064H1693.55M1639.46 32.4064L1623.67 25.6935M1639.46 32.4064H1585.38M1639.46 32.4064L1655.81 39.3581M1693.55 32.4064L1676.83 25.6935M1693.55 32.4064L1710.86 39.3581M1693.55 32.4064H1747.63M1623.67 25.6935H1676.83M1623.67 25.6935L1608.42 19.208M1623.67 25.6935H1570.51M1676.83 25.6935H1729.99M1676.83 25.6935L1660.67 19.208M1710.86 39.3581L1728.8 46.5615M1710.86 39.3581H1765.91M1710.86 39.3581H1655.81M1747.63 32.4064L1729.99 25.6935M1747.63 32.4064L1765.91 39.3581M1747.63 32.4064H1801.72M1729.99 25.6935H1783.14M1729.99 25.6935L1712.93 19.208M1660.67 19.208H1608.42M1660.67 19.208H1712.93M1660.67 19.208L1645.06 12.9371M1765.91 39.3581L1784.85 46.5615M1765.91 39.3581H1817.41M1801.72 32.4064L1783.14 25.6935M1801.72 32.4064L1817.41 38.0755M1801.72 32.4064H1817.41M1783.14 25.6935L1765.19 19.208M1783.14 25.6935H1817.41M1712.93 19.208H1765.19M1712.93 19.208L1696.45 12.9371M1765.19 19.208L1747.84 12.9371M1765.19 19.208H1817.41M1728.8 46.5615H1784.85M1728.8 46.5615H1672.76M1804.48 54.0302L1784.85 46.5615M1804.48 54.0302L1817.41 58.9464M1804.48 54.0302H1817.41M1784.85 46.5615H1817.41M1672.76 46.5615H1616.71M1672.76 46.5615L1655.81 39.3581M1655.81 39.3581H1600.77M1786.74 69.8251L1807.57 78.1859M1786.74 69.8251H1727.48M1786.74 69.8251H1817.41M1817.59 61.7794H1817.41M1807.57 78.1859H1747.15M1807.57 78.1859L1817.41 82.1373M1807.57 78.1859H1817.41M1747.15 78.1859H1686.73M1747.15 78.1859L1727.48 69.8251M1727.48 69.8251H1668.22M1490.67 39.3581L1504.62 46.5615M1490.67 39.3581H1545.72M1490.67 39.3581H1435.62M1531.29 32.4064L1517.36 25.6935M1531.29 32.4064L1545.72 39.3581M1531.29 32.4064H1585.38M1517.36 25.6935H1570.51M1517.36 25.6935L1503.9 19.208M1451.64 19.208H1503.9M1451.64 19.208L1439.49 12.9371M1451.64 19.208H1399.38M1545.72 39.3581L1560.67 46.5615M1545.72 39.3581H1600.77M1585.38 32.4064L1570.51 25.6935M1585.38 32.4064L1600.77 39.3581M1570.51 25.6935L1556.16 19.208M1503.9 19.208H1556.16M1503.9 19.208L1490.88 12.9371M1600.77 39.3581L1616.71 46.5615M1608.42 19.208H1556.16M1608.42 19.208L1593.66 12.9371M1556.16 19.208L1542.27 12.9371M1504.62 46.5615H1560.67M1504.62 46.5615H1448.58M1576.17 54.0302L1560.67 46.5615M1576.17 54.0302L1592.25 61.7794M1576.17 54.0302H1633.25M1560.67 46.5615H1616.71M1448.58 46.5615H1392.53M1448.58 46.5615L1435.62 39.3581M1616.71 46.5615L1633.25 54.0302M1435.62 39.3581H1380.57M1592.25 61.7794L1608.95 69.8251M1592.25 61.7794H1650.4M1633.25 54.0302L1650.4 61.7794M1650.4 61.7794L1668.22 69.8251M1549.69 69.8251L1565.89 78.1859M1549.69 69.8251H1608.95M1549.69 69.8251H1490.43M1608.95 69.8251L1626.31 78.1859M1608.95 69.8251H1668.22M1668.22 69.8251L1686.73 78.1859M1565.89 78.1859H1626.31M1565.89 78.1859H1505.46M1644.35 86.8791L1626.31 78.1859M1644.35 86.8791L1663.12 95.9254M1644.35 86.8791H1705.97M1626.31 78.1859H1686.73M1505.46 78.1859H1445.04M1505.46 78.1859L1490.43 69.8251M1686.73 78.1859L1705.97 86.8791M1490.43 69.8251H1431.16M1663.12 95.9254L1682.68 105.347M1663.12 95.9254H1726M1705.97 86.8791L1726 95.9254M1726 95.9254L1746.86 105.347M1618.5 105.347L1637.52 115.167M1618.5 105.347H1682.68M1618.5 105.347H1554.32M1682.68 105.347L1703.06 115.167M1682.68 105.347H1746.86M1746.86 105.347L1768.6 115.167M1746.86 105.347H1811.04M1811.04 105.347H1817.41M1811.04 105.347L1817.41 108.056M1637.52 115.167H1703.06M1637.52 115.167H1571.99M1724.33 125.413L1703.06 115.167M1724.33 125.413L1746.53 136.11M1724.33 125.413H1791.28M1703.06 115.167H1768.6M1571.99 115.167H1506.45M1571.99 115.167L1554.32 105.347M1768.6 115.167L1791.28 125.413M1768.6 115.167H1817.41M1554.32 105.347H1490.14M1746.53 136.11L1769.74 147.293M1746.53 136.11H1814.96M1791.28 125.413L1814.96 136.11M1791.28 125.413H1817.41M1817.75 115.167H1817.41M1814.96 136.11L1817.41 137.214M1814.96 136.11H1817.41M1699.76 147.293L1722.42 158.992M1699.76 147.293H1769.74M1699.76 147.293H1629.77M1769.74 147.293L1794.02 158.992M1769.74 147.293H1817.41M1818 137.481L1817.41 137.214M1722.42 158.992H1794.02M1722.42 158.992H1650.82M1794.02 158.992H1817.41M1794.02 158.992L1817.41 170.261M1650.82 158.992H1579.22M1650.82 158.992L1629.77 147.293M1629.77 147.293H1559.79M1797.17 197.58H1720.23M1797.17 197.58L1817.41 208.027M1797.17 197.58H1817.41M1817.97 184.093H1817.41M1720.23 197.58H1643.29M1720.23 197.58L1745.73 211.753M1817.63 208.143L1817.41 208.027M1270.48 39.3581L1280.45 46.5615M1270.48 39.3581H1325.53M1270.48 39.3581H1215.43M1314.95 32.4064L1304.73 25.6935M1314.95 32.4064L1325.53 39.3581M1314.95 32.4064H1369.03M1304.73 25.6935H1357.89M1304.73 25.6935L1294.86 19.208M1242.6 19.208H1294.86M1242.6 19.208L1239.31 16.8319L1233.92 12.9371M1242.6 19.208H1190.34M1325.53 39.3581L1336.49 46.5615M1325.53 39.3581H1380.57M1369.03 32.4064L1357.89 25.6935M1369.03 32.4064L1380.57 39.3581M1357.89 25.6935L1347.12 19.208M1294.86 19.208H1347.12M1294.86 19.208L1285.31 12.9371M1380.57 39.3581L1392.53 46.5615M1399.38 19.208L1388.1 12.9371M1399.38 19.208H1347.12M1347.12 19.208L1345.8 18.4117L1343.17 16.8319L1336.7 12.9371M1280.45 46.5615H1336.49M1280.45 46.5615H1224.4M1347.86 54.0302L1336.49 46.5615M1347.86 54.0302L1359.65 61.7794M1347.86 54.0302H1404.94M1336.49 46.5615H1392.53M1224.4 46.5615H1168.36M1224.4 46.5615L1215.43 39.3581M1392.53 46.5615L1404.94 54.0302M1215.43 39.3581H1160.38M1359.65 61.7794L1371.9 69.8251M1359.65 61.7794H1417.8M1404.94 54.0302L1406.52 54.9823L1417.8 61.7794M1417.8 61.7794L1431.16 69.8251M1312.64 69.8251L1314.06 70.8534L1324.2 78.1859M1312.64 69.8251H1371.9M1312.64 69.8251H1253.37M1371.9 69.8251L1384.62 78.1859M1371.9 69.8251H1431.16M1431.16 69.8251L1445.04 78.1859M1324.2 78.1859H1384.62M1324.2 78.1859H1263.78M1397.86 86.8791L1384.62 78.1859M1397.86 86.8791L1411.62 95.9254M1397.86 86.8791H1459.48M1384.62 78.1859H1445.04M1263.78 78.1859H1203.36M1263.78 78.1859L1253.37 69.8251M1445.04 78.1859L1459.48 86.8791M1253.37 69.8251H1194.11M1411.62 95.9254L1425.96 105.347M1411.62 95.9254H1474.5M1459.48 86.8791L1474.5 95.9254M1474.5 95.9254L1490.14 105.347M1361.79 105.347L1375.37 115.167M1361.79 105.347H1425.96M1361.79 105.347H1297.61M1425.96 105.347L1440.91 115.167M1425.96 105.347H1490.14M1490.14 105.347L1506.45 115.167M1375.37 115.167H1440.91M1375.37 115.167H1309.84M1456.51 125.413L1440.91 115.167M1456.51 125.413L1472.79 136.11M1456.51 125.413H1523.46M1440.91 115.167H1506.45M1309.84 115.167H1244.3M1309.84 115.167L1297.61 105.347M1506.45 115.167L1523.46 125.413M1297.61 105.347H1233.43M1472.79 136.11L1489.81 147.293M1472.79 136.11H1541.22M1523.46 125.413L1541.22 136.11M1541.22 136.11L1559.79 147.293M1419.83 147.293L1436.01 158.992M1419.83 147.293H1489.81M1419.83 147.293H1349.84M1489.81 147.293L1507.61 158.992M1489.81 147.293H1559.79M1559.79 147.293L1579.22 158.992M1436.01 158.992H1507.61M1436.01 158.992H1364.41M1526.27 171.245L1507.61 158.992M1526.27 171.245L1545.82 184.093M1526.27 171.245H1599.56M1507.61 158.992H1579.22M1364.41 158.992H1292.81M1364.41 158.992L1349.84 147.293M1579.22 158.992L1599.56 171.245M1349.84 147.293H1279.86M1545.82 184.093L1566.35 197.58M1545.82 184.093H1620.9M1599.56 171.245L1620.9 184.093M1620.9 184.093L1643.29 197.58M1489.41 197.58L1509.02 211.753M1489.41 197.58H1566.35M1489.41 197.58H1412.47M1566.35 197.58L1587.92 211.753M1566.35 197.58H1643.29M1643.29 197.58L1666.82 211.753M1509.02 211.753H1587.92M1509.02 211.753H1430.12M1610.62 226.669L1587.92 211.753M1610.62 226.669L1634.55 242.385M1610.62 226.669H1691.59M1587.92 211.753H1666.82M1430.12 211.753H1351.21M1430.12 211.753L1412.47 197.58M1666.82 211.753L1691.59 226.669M1666.82 211.753H1745.73M1412.47 197.58H1335.53M1634.55 242.385L1659.79 258.971M1634.55 242.385H1717.69M1691.59 226.669L1717.69 242.385M1745.73 211.753H1817.41M1717.69 242.385L1745.22 258.971M1574.35 258.971L1598.6 276.496M1574.35 258.971H1659.79M1574.35 258.971H1488.92M1659.79 258.971L1686.46 276.496M1659.79 258.971H1745.22M1745.22 258.971L1774.32 276.496M1745.22 258.971H1817.41M1598.6 276.496H1686.46M1598.6 276.496H1510.74M1714.7 295.046L1686.46 276.496M1714.7 295.046L1744.63 314.712M1714.7 295.046H1805.12M1686.46 276.496H1774.32M1510.74 276.496H1422.88M1510.74 276.496L1488.92 258.971M1774.32 276.496L1805.12 295.046M1774.32 276.496H1817.41M1488.92 258.971H1403.48M1744.63 314.712L1776.42 335.599M1744.63 314.712H1817.41M1805.12 295.046H1817.41M1805.12 295.046L1817.41 302.446M1680.38 335.599L1711.13 357.823M1680.38 335.599H1776.42M1680.38 335.599H1584.34M1776.42 335.599L1810.24 357.823M1776.42 335.599H1817.41M1711.13 357.823H1810.24M1711.13 357.823H1612.02M1810.24 357.823L1817.41 362.53M1810.24 357.823H1817.41M1612.02 357.823H1512.91M1612.02 357.823L1584.34 335.599M1584.34 335.599H1488.31M1816.46 433.942H1706.81M1816.46 433.942H1817.41M1816.46 433.942L1817.41 434.63M1706.81 433.942H1597.17M1706.81 433.942L1743.05 463.043M1050.29 39.3581L1052.5 42.0285L1053.25 42.9275L1056.27 46.5615M1050.29 39.3581H1105.33M1050.29 39.3581H995.239M1098.6 32.4064L1093.7 27.3507L1092.1 25.6935M1098.6 32.4064L1104.48 38.4753L1105.33 39.3581M1098.6 32.4064H1152.69M1092.1 25.6935H1145.26M1092.1 25.6935L1085.82 19.208M1033.56 19.208H1085.82M1033.56 19.208L1031.59 16.8319L1028.35 12.9371M1033.56 19.208H981.299M1105.33 39.3581L1107.06 41.1341L1112.31 46.5615M1105.33 39.3581H1160.38M1152.69 32.4064L1145.26 25.6935M1152.69 32.4064L1160.38 39.3581M1145.26 25.6935L1139.85 20.8086L1138.08 19.208M1085.82 19.208H1138.08M1085.82 19.208L1079.74 12.9371M1160.38 39.3581L1168.36 46.5615M1190.34 19.208L1189.35 18.4117L1182.53 12.9371M1190.34 19.208H1138.08M1138.08 19.208L1135.45 16.8319L1131.14 12.9371M1056.27 46.5615H1112.31M1056.27 46.5615H1000.22M1119.55 54.0302L1112.31 46.5615M1119.55 54.0302L1127.05 61.7794M1119.55 54.0302H1176.62M1112.31 46.5615H1168.36M1000.22 46.5615H944.178M1000.22 46.5615L995.239 39.3581M1168.36 46.5615L1176.62 54.0302M995.239 39.3581H940.192M1127.05 61.7794L1131.89 66.7728L1132.87 67.7849L1134.84 69.8251M1127.05 61.7794H1185.2M1176.62 54.0302L1185.2 61.7794M1185.2 61.7794L1194.11 69.8251M1075.58 69.8251L1082.52 78.1859M1075.58 69.8251H1134.84M1075.58 69.8251H1016.32M1134.84 69.8251L1142.94 78.1859M1134.84 69.8251H1194.11M1194.11 69.8251L1203.36 78.1859M1082.52 78.1859H1142.94M1082.52 78.1859H1022.1M1151.36 86.8791L1146.06 81.4056L1145.02 80.3266L1142.94 78.1859M1151.36 86.8791L1160.12 95.9254M1151.36 86.8791H1212.99M1142.94 78.1859H1203.36M1022.1 78.1859H961.681M1022.1 78.1859L1016.32 69.8251M1203.36 78.1859L1212.99 86.8791M1016.32 69.8251H957.054M1160.12 95.9254L1169.25 105.347M1160.12 95.9254H1223M1212.99 86.8791L1223 95.9254M1223 95.9254L1233.43 105.347M1105.07 105.347L1109.11 110.205L1110.13 111.436L1113.22 115.167M1105.07 105.347H1169.25M1105.07 105.347H1040.89M1169.25 105.347L1178.76 115.167M1169.25 105.347H1233.43M1233.43 105.347L1244.3 115.167M1113.22 115.167H1178.76M1113.22 115.167H1047.69M1188.69 125.413L1178.76 115.167M1188.69 125.413L1199.05 136.11M1188.69 125.413H1255.64M1178.76 115.167H1244.3M1047.69 115.167H982.149M1047.69 115.167L1045.96 112.674L1040.89 105.347M1244.3 115.167L1255.64 125.413M1040.89 105.347H976.715M1199.05 136.11L1209.88 147.293M1199.05 136.11H1267.48M1255.64 125.413L1267.48 136.11M1267.48 136.11L1279.86 147.293M1139.89 147.293L1149.61 158.992M1139.89 147.293H1209.88M1139.89 147.293H1069.91M1209.88 147.293L1221.21 158.992M1209.88 147.293H1279.86M1279.86 147.293L1292.81 158.992M1149.61 158.992H1221.21M1149.61 158.992H1078.01M1233.08 171.245L1221.21 158.992M1233.08 171.245L1245.52 184.093M1233.08 171.245H1306.38M1221.21 158.992H1292.81M1078.01 158.992H1006.41M1078.01 158.992L1069.91 147.293M1292.81 158.992L1306.38 171.245M1069.91 147.293H999.931M1245.52 184.093L1258.58 197.58M1245.52 184.093H1320.6M1306.38 171.245L1320.6 184.093M1320.6 184.093L1335.53 197.58M1181.64 197.58L1193.41 211.753M1181.64 197.58H1258.58M1181.64 197.58H1104.7M1258.58 197.58L1272.31 211.753M1258.58 197.58H1335.53M1335.53 197.58L1351.21 211.753M1193.41 211.753H1272.31M1193.41 211.753H1114.51M1286.76 226.669L1272.31 211.753M1286.76 226.669L1301.98 242.385M1286.76 226.669H1367.73M1272.31 211.753H1351.21M1114.51 211.753H1035.61M1114.51 211.753L1104.7 197.58M1351.21 211.753L1367.73 226.669M1104.7 197.58H1027.76M1301.98 242.385L1318.05 258.971M1301.98 242.385H1385.12M1367.73 226.669L1385.12 242.385M1385.12 242.385L1403.48 258.971M1232.61 258.971L1247.16 276.496M1232.61 258.971H1318.05M1232.61 258.971H1147.18M1318.05 258.971L1335.02 276.496M1318.05 258.971H1403.48M1403.48 258.971L1422.88 276.496M1247.16 276.496H1335.02M1247.16 276.496H1159.3M1352.99 295.046L1335.02 276.496M1352.99 295.046L1372.04 314.712M1352.99 295.046H1443.42M1335.02 276.496H1422.88M1159.3 276.496H1071.44M1159.3 276.496L1147.18 258.971M1422.88 276.496L1443.42 295.046M1147.18 258.971H1061.74M1372.04 314.712L1392.27 335.599M1372.04 314.712H1465.18M1443.42 295.046L1465.18 314.712M1465.18 314.712L1488.31 335.599M1296.23 335.599L1314.68 357.823M1296.23 335.599H1392.27M1296.23 335.599H1200.19M1392.27 335.599L1413.79 357.823M1392.27 335.599H1488.31M1488.31 335.599L1512.91 357.823M1314.68 357.823H1413.79M1314.68 357.823H1215.57M1436.74 381.518L1413.79 357.823M1436.74 381.518L1461.26 406.833M1436.74 381.518H1539.13M1413.79 357.823H1512.91M1215.57 357.823H1116.45M1215.57 357.823L1200.19 335.599M1512.91 357.823L1539.13 381.518M1200.19 335.599H1104.15M1461.26 406.833L1487.52 433.942M1461.26 406.833H1567.16M1539.13 381.518L1567.16 406.833M1567.16 406.833L1597.17 433.942M1377.87 433.942L1402.03 463.043M1377.87 433.942H1487.52M1377.87 433.942H1268.23M1487.52 433.942L1515.7 463.043M1487.52 433.942H1597.17M1597.17 433.942L1629.38 463.043M1402.03 463.043H1515.7M1402.03 463.043H1288.36M1546.04 494.361L1515.7 463.043M1546.04 494.361L1578.78 528.163M1546.04 494.361H1664.05M1515.7 463.043H1629.38M1288.36 463.043H1174.69M1288.36 463.043L1268.23 433.942M1629.38 463.043L1664.05 494.361M1629.38 463.043H1743.05M1268.23 433.942H1158.58M1578.78 528.163L1614.22 564.755M1578.78 528.163H1701.46M1664.05 494.361L1701.46 528.163M1743.05 463.043H1817.41M1701.46 528.163L1741.97 564.755M1701.46 528.163H1817.41M1486.48 564.755L1519.47 604.497M1486.48 564.755H1614.22M1486.48 564.755H1358.73M1614.22 564.755L1652.71 604.497M1614.22 564.755H1741.97M1741.97 564.755L1785.96 604.497M1741.97 564.755H1817.41M1519.47 604.497H1652.71M1519.47 604.497H1386.22M1694.67 647.813L1652.71 604.497M1694.67 647.813L1740.58 695.211M1694.67 647.813H1817.41M1652.71 604.497H1785.96M1386.22 604.497H1252.98M1386.22 604.497L1358.73 564.755M1785.96 604.497H1817.41M1785.96 604.497L1817.41 632.908M1358.73 564.755H1230.98M1740.58 695.211L1791.03 747.295M1740.58 695.211H1817.41M1638.02 747.295L1685.76 804.796M1638.02 747.295H1791.03M1638.02 747.295H1485.02M1791.03 747.295L1817.41 774.535M1791.03 747.295H1817.41M1685.76 804.796H1524.8M1685.76 804.796L1817.41 804.795M1524.8 804.796H1363.84M1524.8 804.796L1485.02 747.295M1485.02 747.295H1332.01M830.095 39.3581L830.341 40.2444L830.587 41.1341L830.835 42.0285L831.083 42.9275L831.836 45.6463L832.089 46.5615M830.095 39.3581H885.144M830.095 39.3581H775.048M882.258 32.4064L880.159 27.3507L879.472 25.6935M882.258 32.4064L884.05 36.7224L885.144 39.3581M882.258 32.4064H936.344M879.472 25.6935H932.629M879.472 25.6935L877.444 20.8086L876.778 19.208M824.519 19.208L824.3 18.4117L823.429 15.2635L822.784 12.9371M824.519 19.208H876.778M824.519 19.208H772.26M885.144 39.3581L885.511 40.2444L885.881 41.1341L886.252 42.0285L886.625 42.9275L888.133 46.5615M885.144 39.3581H940.192M936.344 32.4064L933.545 27.3507L932.629 25.6935M936.344 32.4064L940.192 39.3581M932.629 25.6935L930.818 22.423L929.48 20.0065L929.039 19.208M876.778 19.208L876.449 18.4117L875.793 16.8319L875.142 15.2635L874.819 14.4846L874.176 12.9371M876.778 19.208H929.039M940.192 39.3581L943.168 44.7358L944.178 46.5615M981.299 19.208L978.032 14.4846L976.961 12.9371M981.299 19.208H929.039M929.039 19.208L925.996 13.7091L925.568 12.9371M832.089 46.5615H888.133M832.089 46.5615H776.044M891.233 54.0302L888.133 46.5615M891.233 54.0302L894.45 61.7794M891.233 54.0302H948.311M888.133 46.5615H944.178M776.044 46.5615H720M776.044 46.5615L775.048 39.3581M944.178 46.5615L948.311 54.0302M775.048 39.3581H720M894.45 61.7794L895.274 63.762L896.524 66.7728L897.791 69.8251M894.45 61.7794H952.602M948.311 54.0302L948.839 54.9823L952.602 61.7794M952.602 61.7794L953.148 62.7684L953.699 63.762L954.251 64.7614L957.054 69.8251M838.527 69.8251L840.841 78.1859M838.527 69.8251H897.791M838.527 69.8251H779.264M897.791 69.8251L901.261 78.1859M897.791 69.8251H957.054M957.054 69.8251L960.507 76.0649L961.094 77.1231L961.681 78.1859M840.841 78.1859H901.261M840.841 78.1859H780.42M904.87 86.8791L905.331 87.9904L905.795 89.1064L906.26 90.2292L908.625 95.9254M904.87 86.8791L903.048 82.4893L902.597 81.4056L902.15 80.3266L901.261 78.1859M904.87 86.8791H966.493M901.261 78.1859H961.681M780.42 78.1859H720M780.42 78.1859L779.264 69.8251M961.681 78.1859L966.493 86.8791M779.264 69.8251H720M908.625 95.9254L912.039 104.148L912.536 105.347M908.625 95.9254H971.5M966.493 86.8791L967.726 89.1064L971.5 95.9254M971.5 95.9254L973.431 99.4128L976.715 105.347M848.357 105.347L849.702 110.205L850.042 111.436L851.075 115.167M848.357 105.347H912.536M848.357 105.347H784.179M912.536 105.347L916.612 115.167M912.536 105.347H976.715M976.715 105.347L982.149 115.167M851.075 115.167H916.612M851.075 115.167H785.537M920.865 125.413L916.612 115.167M920.865 125.413L925.306 136.11M920.865 125.413H987.82M916.612 115.167H982.149M785.537 115.167H720M785.537 115.167L785.192 112.674L784.513 107.763L784.179 105.347M982.149 115.167L987.82 125.413M784.179 105.347H720M925.306 136.11L928.767 144.45L929.948 147.293M925.306 136.11H993.742M987.82 125.413L993.742 136.11M993.742 136.11L996.801 141.639L999.931 147.293M859.965 147.293L863.203 158.992M859.965 147.293H929.948M859.965 147.293H789.983M929.948 147.293L934.804 158.992M929.948 147.293H999.931M999.931 147.293L1006.41 158.992M863.203 158.992H934.804M863.203 158.992H791.601M939.891 171.245L938.596 168.128L934.804 158.992M939.891 171.245L945.224 184.093M939.891 171.245H1013.19M934.804 158.992H1006.41M791.601 158.992H720M791.601 158.992L789.983 147.293M1006.41 158.992L1013.19 171.245M789.983 147.293H720M945.224 184.093L950.822 197.58M945.224 184.093H1020.3M1013.19 171.245L1020.3 184.093M1020.3 184.093L1027.76 197.58M873.882 197.58L877.804 211.753M873.882 197.58H950.822M873.882 197.58H796.941M950.822 197.58L956.705 211.753M950.822 197.58H1027.76M1027.76 197.58L1035.61 211.753M877.804 211.753H956.705M877.804 211.753H798.901M962.898 226.669L956.705 211.753M962.898 226.669L969.422 242.385M962.898 226.669H1043.86M956.705 211.753H1035.61M798.901 211.753H720M798.901 211.753L797.18 199.313L796.941 197.58M1035.61 211.753L1043.86 226.669M796.941 197.58H720M969.422 242.385L976.306 258.971M969.422 242.385H1052.56M1043.86 226.669L1050.34 238.379L1052.56 242.385M1052.56 242.385L1061.74 258.971M890.87 258.971L895.72 276.496M890.87 258.971H976.306M890.87 258.971H805.436M976.306 258.971L983.58 276.496M976.306 258.971H1061.74M1061.74 258.971L1071.44 276.496M895.72 276.496H983.58M895.72 276.496H807.86M991.281 295.046L983.58 276.496M991.281 295.046L999.444 314.712M991.281 295.046H1081.71M983.58 276.496H1071.44M807.86 276.496H720M807.86 276.496L805.436 258.971M1071.44 276.496L1081.71 295.046M805.436 258.971H720M999.444 314.712L1008.11 335.599M999.444 314.712H1092.59M1081.71 295.046L1092.59 314.712M1092.59 314.712L1104.15 335.599M912.076 335.599L918.226 357.823M912.076 335.599H1008.11M912.076 335.599H816.038M1008.11 335.599L1017.34 357.823M1008.11 335.599H1104.15M1104.15 335.599L1116.45 357.823M918.226 357.823H1017.34M918.226 357.823H819.113M1027.18 381.518L1017.34 357.823M1027.18 381.518L1037.68 406.833M1027.18 381.518H1129.57M1017.34 357.823H1116.45M819.113 357.823H720M819.113 357.823L816.038 335.599M1116.45 357.823L1129.57 381.518M816.038 335.599H720M1037.68 406.833L1048.94 433.942M1037.68 406.833H1143.58M1129.57 381.518L1143.58 406.833M1143.58 406.833L1158.58 433.942M939.291 433.942L947.344 463.043M939.291 433.942H1048.94M939.291 433.942H829.646M1048.94 433.942L1061.02 463.043M1048.94 433.942H1158.58M1158.58 433.942L1174.69 463.043M947.344 463.043H1061.02M947.344 463.043H833.672M1074.02 494.361L1061.02 463.043M1074.02 494.361L1088.05 528.163M1074.02 494.361H1192.02M1061.02 463.043H1174.69M833.672 463.043H720M833.672 463.043L829.646 433.942M1174.69 463.043L1192.02 494.361M829.646 433.942H720M1088.05 528.163L1103.24 564.755M1088.05 528.163H1210.73M1192.02 494.361L1210.73 528.163M1210.73 528.163L1230.98 564.755M975.492 564.755L986.49 604.497M975.492 564.755H1103.24M975.492 564.755H847.746M1103.24 564.755L1119.73 604.497M1103.24 564.755H1230.98M1230.98 564.755L1252.98 604.497M986.49 604.497H1119.73M986.49 604.497H853.245M1137.72 647.813L1119.73 604.497M1137.72 647.813L1157.39 695.211M1137.72 647.813H1276.95M1119.73 604.497H1252.98M853.245 604.497H720M853.245 604.497L847.746 564.755M1252.98 604.497L1276.95 647.813M847.746 564.755H720M1157.39 695.211L1179.01 747.295M1157.39 695.211H1303.19M1276.95 647.813L1303.19 695.211M1303.19 695.211L1332.01 747.295M1026.01 747.295L1041.92 804.796M1026.01 747.295H1179.01M1026.01 747.295H873.004M1179.01 747.295L1202.88 804.796M1179.01 747.295H1332.01M1332.01 747.295L1363.84 804.796M1202.88 804.796H1041.92M1202.88 804.796H1363.84M1041.92 804.796H880.96M880.96 804.796H720M880.96 804.796L873.004 747.295M873.004 747.295H720M609.905 39.3581L609.659 40.2444L609.413 41.1341L609.165 42.0285L608.917 42.9275L608.416 44.7358L608.164 45.6463L607.911 46.5615M609.905 39.3581H664.952M609.905 39.3581H554.856M665.914 32.4064L666.843 25.6935M665.914 32.4064L664.952 39.3581M665.914 32.4064H720M666.843 25.6935L666.956 24.8707L667.071 24.0513L667.183 23.2354L667.74 19.208M666.843 25.6935H720M615.481 19.208L615.7 18.4117L616.571 15.2635L617.216 12.9371M615.481 19.208H667.74M615.481 19.208H563.221M664.952 39.3581L664.829 40.2444L664.707 41.1341L664.582 42.0285L663.956 46.5615M664.952 39.3581H720M720 32.4064V25.6935M720 32.4064V39.3581M720 25.6935V19.208M667.74 19.208H720M667.74 19.208L668.069 16.8319L668.178 16.046L668.608 12.9371M720 39.3581V46.5615M772.26 19.208L771.932 16.8319L771.822 16.046L771.714 15.2635L771.606 14.4846L771.499 13.7091L771.392 12.9371M772.26 19.208H720M720 19.208V12.9371M607.911 46.5615H663.956M607.911 46.5615H551.867M662.922 54.0302L662.79 54.9823L662.658 55.9401L661.85 61.7794M662.922 54.0302L663.956 46.5615M662.922 54.0302H720M663.956 46.5615H720M551.867 46.5615H495.822M551.867 46.5615L552.623 44.7358L553.001 43.8299L553.374 42.9275L553.748 42.0285L554.119 41.1341L554.489 40.2444L554.856 39.3581M720 46.5615V54.0302M554.856 39.3581H499.808M661.85 61.7794L660.736 69.8251M661.85 61.7794H720M720 54.0302V61.7794M720 61.7794V69.8251M601.473 69.8251L599.159 78.1859M601.473 69.8251H660.736M601.473 69.8251H542.209M660.736 69.8251L659.58 78.1859M660.736 69.8251H720M720 69.8251V78.1859M599.159 78.1859H659.58M599.159 78.1859H538.739M658.377 86.8791L659.58 78.1859M658.377 86.8791L657.125 95.9254M658.377 86.8791H720M659.58 78.1859H720M538.739 78.1859H478.319M538.739 78.1859L542.209 69.8251M720 78.1859V86.8791M542.209 69.8251H482.946M657.125 95.9254L656.643 99.4128L656.153 102.954L655.821 105.347M657.125 95.9254H720M720 86.8791V95.9254M720 95.9254V105.347M591.643 105.347L590.298 110.205L589.958 111.436L588.925 115.167M591.643 105.347H655.821M591.643 105.347H527.464M655.821 105.347L655.487 107.763L654.808 112.674L654.463 115.167M655.821 105.347H720M720 105.347V115.167M588.925 115.167H654.463M588.925 115.167H523.388M653.046 125.413L653.225 124.107L654.463 115.167M653.046 125.413L651.565 136.11M653.046 125.413H720M654.463 115.167H720M523.388 115.167H457.851M523.388 115.167L527.464 105.347M720 115.167V125.413M527.464 105.347H463.285M651.565 136.11L650.017 147.293M651.565 136.11H720M720 125.413V136.11M720 136.11V147.293M580.035 147.293L576.797 158.992M580.035 147.293H650.017M580.035 147.293H510.052M650.017 147.293L648.399 158.992M650.017 147.293H720M720 147.293V158.992M576.797 158.992H648.399M576.797 158.992H505.196M646.703 171.245L648.399 158.992M646.703 171.245L644.926 184.093M646.703 171.245H720M648.399 158.992H720M505.196 158.992H433.595M505.196 158.992L510.052 147.293M720 158.992V171.245M510.052 147.293H440.069M644.926 184.093L643.059 197.58M644.926 184.093H720M720 171.245V184.093M720 184.093V197.58M566.118 197.58L562.196 211.753M566.118 197.58H643.059M566.118 197.58H489.178M643.059 197.58L641.099 211.753M643.059 197.58H720M720 197.58V211.753M562.196 211.753H641.099M562.196 211.753H483.295M639.034 226.669L641.099 211.753M639.034 226.669L636.86 242.385M639.034 226.669H720M641.099 211.753H720M483.295 211.753H404.392M483.295 211.753L489.178 197.58M720 211.753V226.669M489.178 197.58H412.237M636.86 242.385L634.564 258.971M636.86 242.385H720M720 226.669V242.385M720 242.385V258.971M549.13 258.971L544.28 276.496M549.13 258.971H634.564M549.13 258.971H463.694M634.564 258.971L632.14 276.496M634.564 258.971H720M720 258.971V276.496M544.28 276.496H632.14M544.28 276.496H456.419M629.574 295.046L632.14 276.496M629.574 295.046L626.852 314.712M629.574 295.046H720M632.14 276.496H720M456.419 276.496H368.559M456.419 276.496L463.694 258.971M720 276.496V295.046M463.694 258.971H378.259M626.852 314.712L623.962 335.599M626.852 314.712H720M720 295.046V314.712M720 314.712V335.599M527.924 335.599L521.774 357.823M527.924 335.599H623.962M527.924 335.599H431.886M623.962 335.599L620.887 357.823M623.962 335.599H720M720 335.599V357.823M521.774 357.823H620.887M521.774 357.823H422.66M617.608 381.518L620.887 357.823M617.608 381.518L614.106 406.833M617.608 381.518H720M620.887 357.823H720M422.66 357.823H323.547M422.66 357.823L431.886 335.599M720 357.823V381.518M431.886 335.599H335.847M614.106 406.833L610.354 433.942M614.106 406.833H720M720 381.518V406.833M720 406.833V433.942M500.709 433.942L492.656 463.043M500.709 433.942H610.354M500.709 433.942H391.063M610.354 433.942L606.328 463.043M610.354 433.942H720M720 433.942V463.043M492.656 463.043H606.328M492.656 463.043H378.984M601.994 494.361L606.328 463.043M601.994 494.361L597.318 528.163M601.994 494.361H720M606.328 463.043H720M378.984 463.043H265.311M378.984 463.043L391.063 433.942M720 463.043V494.361M391.063 433.942H281.417M597.318 528.163L592.254 564.755M597.318 528.163H720M720 494.361V528.163M720 528.163V564.755M464.508 564.755L453.51 604.497M464.508 564.755H592.254M464.508 564.755H336.762M592.254 564.755L586.755 604.497M592.254 564.755H720M720 564.755V604.497M453.51 604.497H586.755M453.51 604.497H320.265M580.762 647.813L586.755 604.497M580.762 647.813L574.203 695.211M580.762 647.813H720M586.755 604.497H720M320.265 604.497H187.02M320.265 604.497L336.762 564.755M720 604.497V647.813M336.762 564.755H209.017M574.203 695.211L566.996 747.295M574.203 695.211H720M720 647.813V695.211M720 695.211V747.295M413.993 747.295L398.081 804.796M413.993 747.295H566.996M413.993 747.295H260.989M566.996 747.295L559.04 804.796M566.996 747.295H720M720 747.295V804.796M559.04 804.796H398.081M559.04 804.796H720M398.081 804.796H237.121M237.121 804.796H76.1604M237.121 804.796L260.989 747.295M260.989 747.295H107.985M389.713 39.3581L386.75 42.9275L383.733 46.5615M389.713 39.3581H444.761M389.713 39.3581H334.665M449.57 32.4064L454.214 25.6935M449.57 32.4064L444.761 39.3581M449.57 32.4064H503.656M454.214 25.6935H507.371M454.214 25.6935L457.594 20.8086L458.701 19.208M406.442 19.208H458.701M406.442 19.208L408.415 16.8319L411.648 12.9371M406.442 19.208H354.182M444.761 39.3581L439.778 46.5615M444.761 39.3581H499.808M503.656 32.4064L507.371 25.6935M503.656 32.4064L499.808 39.3581M507.371 25.6935L509.182 22.423L510.52 20.0065L510.961 19.208M458.701 19.208H510.961M458.701 19.208L461.968 14.4846L463.039 12.9371M499.808 39.3581L496.832 44.7358L495.822 46.5615M563.221 19.208L563.551 18.4117L564.207 16.8319L565.181 14.4846L565.824 12.9371M563.221 19.208H510.961M510.961 19.208L511.401 18.4117L512.277 16.8319L514.431 12.9371M383.733 46.5615H439.778M383.733 46.5615H327.688M434.61 54.0302L435.267 53.0816L435.92 52.1365L438.503 48.4021L439.778 46.5615M434.61 54.0302L430.608 59.8141L429.248 61.7794M434.61 54.0302H491.689M439.778 46.5615H495.822M327.688 46.5615H271.643M327.688 46.5615L332.944 41.1341L334.665 39.3581M495.822 46.5615L491.689 54.0302M334.665 39.3581H279.617M429.248 61.7794L428.565 62.7684L427.877 63.762L425.795 66.7728L425.093 67.7849L423.682 69.8251M429.248 61.7794H487.398M491.689 54.0302L491.161 54.9823L487.398 61.7794M487.398 61.7794L486.852 62.7684L486.301 63.762L485.749 64.7614L482.946 69.8251M364.419 69.8251L357.478 78.1859M364.419 69.8251H423.682M364.419 69.8251H305.155M423.682 69.8251L417.898 78.1859M423.682 69.8251H482.946M482.946 69.8251L478.319 78.1859M357.478 78.1859H417.898M357.478 78.1859H297.057M411.884 86.8791L417.898 78.1859M411.884 86.8791L405.626 95.9254M411.884 86.8791H473.507M417.898 78.1859H478.319M297.057 78.1859H236.637M297.057 78.1859L305.155 69.8251M478.319 78.1859L473.507 86.8791M305.155 69.8251H245.891M405.626 95.9254L399.107 105.347M405.626 95.9254H468.5M473.507 86.8791L472.274 89.1064L468.5 95.9254M468.5 95.9254L466.569 99.4128L464.609 102.954L463.285 105.347M334.928 105.347L330.894 110.205L326.776 115.167M334.928 105.347H399.107M334.928 105.347H270.749M399.107 105.347L392.313 115.167M399.107 105.347H463.285M463.285 105.347L457.851 115.167M326.776 115.167H392.313M326.776 115.167H261.239M385.225 125.413L392.313 115.167M385.225 125.413L377.823 136.11M385.225 125.413H452.18M392.313 115.167H457.851M261.239 115.167H195.7M261.239 115.167L270.749 105.347M457.851 115.167L452.18 125.413M270.749 105.347H206.571M377.823 136.11L375.921 138.859L370.088 147.293M377.823 136.11H446.258M452.18 125.413L446.258 136.11M446.258 136.11L445.5 137.481L443.199 141.639L440.069 147.293M300.105 147.293L290.392 158.992M300.105 147.293H370.088M300.105 147.293H230.122M370.088 147.293L361.993 158.992M370.088 147.293H440.069M440.069 147.293L433.595 158.992M290.392 158.992H361.993M290.392 158.992H218.79M353.516 171.245L358.861 163.52L361.993 158.992M353.516 171.245L344.627 184.093M353.516 171.245H426.812M361.993 158.992H433.595M218.79 158.992H147.189M218.79 158.992L230.122 147.293M433.595 158.992L426.812 171.245M230.122 147.293H160.14M344.627 184.093L335.296 197.58M344.627 184.093H419.702M426.812 171.245L419.702 184.093M419.702 184.093L412.237 197.58M258.355 197.58L246.588 211.753M258.355 197.58H335.296M258.355 197.58H181.416M335.296 197.58L325.491 211.753M335.296 197.58H412.237M412.237 197.58L404.392 211.753M246.588 211.753H325.491M246.588 211.753H167.687M315.172 226.669L325.491 211.753M315.172 226.669L304.298 242.385M315.172 226.669H396.138M325.491 211.753H404.392M167.687 211.753H88.7852M167.687 211.753L181.416 197.58M404.392 211.753L396.138 226.669M181.416 197.58H104.475M304.298 242.385L292.824 258.971M304.298 242.385H387.438M396.138 226.669L387.438 242.385M387.438 242.385L378.259 258.971M207.389 258.971L192.839 276.496M207.389 258.971H292.824M207.389 258.971H121.953M292.824 258.971L280.699 276.496M292.824 258.971H378.259M378.259 258.971L368.559 276.496M192.839 276.496H280.699M192.839 276.496H104.979M267.865 295.046L280.699 276.496M267.865 295.046L254.26 314.712M267.865 295.046H358.293M280.699 276.496H368.559M104.979 276.496H17.1187M104.979 276.496L121.953 258.971M368.559 276.496L358.293 295.046M121.953 258.971H36.5188M254.26 314.712L239.809 335.599M254.26 314.712H347.408M358.293 295.046L347.408 314.712M347.408 314.712L335.847 335.599M143.771 335.599L125.321 357.823M143.771 335.599H239.809M143.771 335.599H47.7329M239.809 335.599L224.434 357.823M239.809 335.599H335.847M335.847 335.599L323.547 357.823M125.321 357.823H224.434M125.321 357.823H26.2077M208.042 381.518L224.434 357.823M208.042 381.518L190.526 406.833M208.042 381.518H310.433M224.434 357.823H323.547M26.2077 357.823H-72.9054M26.2077 357.823L47.7329 335.599M323.547 357.823L310.433 381.518M47.7329 335.599H-48.3052M190.526 406.833L171.772 433.942M190.526 406.833H296.422M310.433 381.518L296.422 406.833M296.422 406.833L281.417 433.942M62.1262 433.942L37.9672 463.043M62.1262 433.942H171.772M62.1262 433.942H-47.5199M171.772 433.942L151.639 463.043M171.772 433.942H281.417M281.417 433.942L265.311 463.043M37.9672 463.043H151.639M37.9672 463.043H-75.705M129.971 494.361L151.639 463.043M129.971 494.361L106.586 528.163M129.971 494.361H247.977M151.639 463.043H265.311M-75.705 463.043H-189.377M-75.705 463.043L-47.5199 433.942M265.311 463.043L247.977 494.361M-47.5199 433.942H-157.166M106.586 528.163L81.2702 564.755M106.586 528.163H229.268M247.977 494.361L229.268 528.163M229.268 528.163L209.017 564.755M-46.475 564.755L-79.4693 604.497M-46.475 564.755H81.2702M-46.475 564.755H-174.221M81.2702 564.755L53.7756 604.497M81.2702 564.755H209.017M209.017 564.755L187.02 604.497M-79.4693 604.497H53.7756M-79.4693 604.497H-212.714M23.8072 647.813L53.7756 604.497M23.8072 647.813L-8.9848 695.211M23.8072 647.813H163.045M53.7756 604.497H187.02M-212.714 604.497H-345.959M-212.714 604.497L-174.221 564.755M187.02 604.497L163.045 647.813M-174.221 564.755H-301.967M-8.9848 695.211L-45.0175 747.295M-8.9848 695.211H136.813M163.045 647.813L136.813 695.211M136.813 695.211L107.985 747.295M-198.021 747.295L-245.759 804.796M-198.021 747.295H-45.0175M-198.021 747.295H-351.025M-45.0175 747.295L-84.7986 804.796M-45.0175 747.295H107.985M107.985 747.295L76.1604 804.796M-84.7986 804.796H-245.759M-84.7986 804.796H76.1604M-245.759 804.796L-377.409 804.795M-351.025 747.295L-377.409 774.535M-351.025 747.295H-377.409M169.521 39.3581L159.554 46.5615M169.521 39.3581H224.569M169.521 39.3581H114.474M233.226 32.4064L241.586 25.6935M233.226 32.4064L224.569 39.3581M233.226 32.4064H287.312M241.586 25.6935H294.743M241.586 25.6935L249.663 19.208M197.402 19.208H249.663M197.402 19.208L200.691 16.8319L206.08 12.9371M197.402 19.208H145.143M224.569 39.3581L215.599 46.5615M224.569 39.3581H279.617M287.312 32.4064L294.743 25.6935M287.312 32.4064L279.617 39.3581M294.743 25.6935L300.151 20.8086L301.923 19.208M249.663 19.208L250.653 18.4117L257.472 12.9371M249.663 19.208H301.923M279.617 39.3581L271.643 46.5615M354.182 19.208L360.256 12.9371M354.182 19.208H301.923M301.923 19.208L304.553 16.8319L308.864 12.9371M159.554 46.5615H215.599M159.554 46.5615H103.51M206.298 54.0302L215.599 46.5615M206.298 54.0302L196.648 61.7794M206.298 54.0302H263.376M215.599 46.5615H271.643M103.51 46.5615H47.4654M103.51 46.5615L114.474 39.3581M271.643 46.5615L263.376 54.0302M114.474 39.3581H59.4261M196.648 61.7794L194.178 63.762L186.627 69.8251M196.648 61.7794H254.798M263.376 54.0302L254.798 61.7794M254.798 61.7794L245.891 69.8251M127.364 69.8251L125.943 70.8534L115.796 78.1859M127.364 69.8251H186.627M127.364 69.8251H68.1002M186.627 69.8251L176.217 78.1859M186.627 69.8251H245.891M245.891 69.8251L244.754 70.8534L236.637 78.1859M115.796 78.1859H176.217M115.796 78.1859H55.376M165.391 86.8791L176.217 78.1859M165.391 86.8791L154.126 95.9254M165.391 86.8791H227.014M176.217 78.1859H236.637M55.376 78.1859H-5.04443M55.376 78.1859L68.1002 69.8251M236.637 78.1859L227.014 86.8791M68.1002 69.8251H8.83666M154.126 95.9254L142.392 105.347M154.126 95.9254H217M227.014 86.8791L217 95.9254M217 95.9254L206.571 105.347M78.2146 105.347L64.6262 115.167M78.2146 105.347H142.392M78.2146 105.347H14.0356M142.392 105.347L130.163 115.167M142.392 105.347H206.571M206.571 105.347L195.7 115.167M64.6262 115.167H130.163M64.6262 115.167H-0.911973M117.405 125.413L130.163 115.167M117.405 125.413L104.081 136.11M117.405 125.413H184.359M130.163 115.167H195.7M-0.911973 115.167H-66.449M-0.911973 115.167L14.0356 105.347M195.7 115.167L184.359 125.413M14.0356 105.347H-50.1434M104.081 136.11L90.157 147.293M104.081 136.11H172.517M184.359 125.413L172.517 136.11M172.517 136.11L160.14 147.293M20.1743 147.293L3.98636 158.992M20.1743 147.293H90.157M20.1743 147.293H-49.8084M90.157 147.293L75.5877 158.992M90.157 147.293H160.14M160.14 147.293L147.189 158.992M3.98636 158.992H75.5877M3.98636 158.992H-67.615M60.328 171.245L75.5877 158.992M60.328 171.245L44.3287 184.093M60.328 171.245H133.625M75.5877 158.992H147.189M-67.615 158.992H-139.216M-67.615 158.992L-49.8084 147.293M147.189 158.992L133.625 171.245M-49.8084 147.293H-119.791M44.3287 184.093L27.5338 197.58M44.3287 184.093H119.403M133.625 171.245L119.403 184.093M119.403 184.093L104.475 197.58M-49.4072 197.58L-69.0188 211.753M-49.4072 197.58H27.5338M-49.4072 197.58H-126.347M27.5338 197.58L9.88264 211.753M27.5338 197.58H104.475M104.475 197.58L88.7852 211.753M-69.0188 211.753H9.88264M-69.0188 211.753H-147.921M-8.69211 226.669L9.88264 211.753M-8.69211 226.669L-28.2638 242.385M-8.69211 226.669H72.2738M9.88264 211.753H88.7852M-147.921 211.753H-226.823M-147.921 211.753L-126.347 197.58M88.7852 211.753L72.2738 226.669M-126.347 197.58H-203.288M-28.2638 242.385L-48.9168 258.971M-28.2638 242.385H54.8764M72.2738 226.669L54.8764 242.385M54.8764 242.385L36.5188 258.971M-134.352 258.971L-158.602 276.496M-134.352 258.971H-48.9168M-134.352 258.971H-219.787M-48.9168 258.971L-70.7415 276.496M-48.9168 258.971H36.5188M36.5188 258.971L17.1187 276.496M-158.602 276.496H-70.7415M-158.602 276.496H-246.462M-93.8419 295.046L-70.7415 276.496M-93.8419 295.046L-118.332 314.712M-93.8419 295.046H-3.41544M-70.7415 276.496H17.1187M-246.462 276.496H-334.322M-246.462 276.496L-219.787 258.971M17.1187 276.496L-3.41544 295.046M-219.787 258.971H-305.222M-118.332 314.712L-144.343 335.599M-118.332 314.712H-25.1841M-3.41544 295.046L-25.1841 314.712M-25.1841 314.712L-48.3052 335.599M-240.381 335.599L-271.132 357.823M-240.381 335.599H-144.343M-240.381 335.599H-336.42M-144.343 335.599L-172.019 357.823M-144.343 335.599H-48.3052M-48.3052 335.599L-72.9054 357.823M-271.132 357.823H-172.019M-271.132 357.823H-370.245M-201.526 381.518L-172.019 357.823M-201.526 381.518L-233.052 406.833M-201.526 381.518H-99.1347M-172.019 357.823H-72.9054M-370.245 357.823L-336.42 335.599M-370.245 357.823H-377.409M-370.245 357.823L-377.409 362.53M-72.9054 357.823L-99.1347 381.518M-336.42 335.599H-377.409M-233.052 406.833L-266.811 433.942M-233.052 406.833H-127.157M-99.1347 381.518L-127.157 406.833M-127.157 406.833L-157.166 433.942M-376.457 433.942H-266.811M-376.457 433.942H-377.409M-376.457 433.942L-377.409 434.63M-266.811 433.942L-303.05 463.043M-266.811 433.942H-157.166M-157.166 433.942L-189.377 463.043M-342.052 494.361L-303.05 463.043M-342.052 494.361H-224.046M-342.052 494.361H-377.409M-342.052 494.361L-377.409 522.754M-303.05 463.043H-189.377M-303.05 463.043H-377.409M-189.377 463.043L-224.046 494.361M-224.046 494.361L-261.462 528.163M-261.462 528.163L-301.967 564.755M-261.462 528.163H-377.409M-301.967 564.755L-345.959 604.497M-301.967 564.755H-377.409M-345.959 604.497H-377.409M-345.959 604.497L-377.409 632.908M-50.6703 39.3581L-64.6234 46.5615M-50.6703 39.3581H4.37844M-50.6703 39.3581H-105.718M16.882 32.4064L28.957 25.6935M16.882 32.4064L4.37844 39.3581M16.882 32.4064H70.9683M28.957 25.6935H82.1138M28.957 25.6935L40.6238 19.208M-11.6357 19.208H40.6238M-11.6357 19.208L0.511223 12.9371M-11.6357 19.208H-63.8952M4.37844 39.3581L-8.57898 46.5615M4.37844 39.3581H59.4261M70.9683 32.4064L82.1138 25.6935M70.9683 32.4064L59.4261 39.3581M82.1138 25.6935L92.8833 19.208M40.6238 19.208L42.0539 18.4117L51.9031 12.9371M40.6238 19.208H92.8833M59.4261 39.3581L47.4654 46.5615M145.143 19.208L154.687 12.9371M145.143 19.208H92.8833M92.8833 19.208L94.2037 18.4117L103.295 12.9371M-64.6234 46.5615H-8.57898M-64.6234 46.5615H-120.668M-22.0143 54.0302L-8.57898 46.5615M-22.0143 54.0302L-35.9536 61.7794M-22.0143 54.0302H35.0647M-8.57898 46.5615H47.4654M-120.668 46.5615H-176.712M-120.668 46.5615L-105.718 39.3581M47.4654 46.5615L35.0647 54.0302M-105.718 39.3581H-160.766M-35.9536 61.7794L-50.4268 69.8251M-35.9536 61.7794H22.1965M35.0647 54.0302L33.4815 54.9823L22.1965 61.7794M22.1965 61.7794L8.83666 69.8251M-109.69 69.8251L-125.885 78.1859M-109.69 69.8251H-50.4268M-109.69 69.8251H-168.954M-50.4268 69.8251L-65.4648 78.1859M-50.4268 69.8251H8.83666M8.83666 69.8251L-5.04443 78.1859M-125.885 78.1859H-65.4648M-125.885 78.1859H-186.305M-81.1017 86.8791L-65.4648 78.1859M-81.1017 86.8791L-97.3742 95.9254M-81.1017 86.8791H-19.4788M-65.4648 78.1859H-5.04443M-186.305 78.1859H-246.726M-186.305 78.1859L-168.954 69.8251M-5.04443 78.1859L-19.4788 86.8791M-168.954 69.8251H-228.217M-97.3742 95.9254L-114.321 105.347M-97.3742 95.9254H-34.4996M-19.4788 86.8791L-34.4996 95.9254M-34.4996 95.9254L-50.1434 105.347M-178.5 105.347L-197.524 115.167M-178.5 105.347H-114.321M-178.5 105.347H-242.679M-114.321 105.347L-131.986 115.167M-114.321 105.347H-50.1434M-50.1434 105.347L-66.449 115.167M-197.524 115.167H-131.986M-197.524 115.167H-263.061M-150.416 125.413L-131.986 115.167M-150.416 125.413L-169.659 136.11M-150.416 125.413H-83.46M-131.986 115.167H-66.449M-263.061 115.167H-328.598M-263.061 115.167L-242.679 105.347M-66.449 115.167L-83.46 125.413M-242.679 105.347H-306.857M-169.659 136.11L-189.774 147.293M-169.659 136.11H-101.224M-83.46 125.413L-101.224 136.11M-101.224 136.11L-119.791 147.293M-259.756 147.293L-282.419 158.992M-259.756 147.293H-189.774M-259.756 147.293H-329.738M-189.774 147.293L-210.818 158.992M-189.774 147.293H-119.791M-119.791 147.293L-139.216 158.992M-282.419 158.992H-210.818M-232.86 171.245L-210.818 158.992M-232.86 171.245L-255.969 184.093M-232.86 171.245H-159.562M-210.818 158.992H-139.216M-139.216 158.992L-159.562 171.245M-329.738 147.293H-377.409M-255.969 184.093L-280.229 197.58M-255.969 184.093H-180.895M-159.562 171.245L-180.895 184.093M-180.895 184.093L-203.288 197.58M-357.17 197.58H-280.229M-357.17 197.58H-377.409M-357.17 197.58L-377.409 208.027M-280.229 197.58L-305.725 211.753M-280.229 197.58H-203.288M-203.288 197.58L-226.823 211.753M-332.555 226.669L-305.725 211.753M-332.555 226.669L-360.826 242.385M-332.555 226.669H-251.589M-332.555 226.669H-377.409M-305.725 211.753H-226.823M-305.725 211.753H-377.409M-226.823 211.753L-251.589 226.669M-377.632 208.143L-377.409 208.027M-360.826 242.385H-277.685M-360.826 242.385H-377.409M-360.826 242.385L-377.409 251.605M-251.589 226.669L-277.685 242.385M-277.685 242.385L-305.222 258.971M-305.222 258.971L-334.322 276.496M-305.222 258.971H-377.409M-365.123 295.046L-334.322 276.496M-365.123 295.046H-377.409M-365.123 295.046L-377.409 302.446M-334.322 276.496H-377.409M-270.861 39.3581L-288.801 46.5615M-270.861 39.3581H-215.813M-270.861 39.3581H-325.91M-199.462 32.4064L-183.672 25.6935M-199.462 32.4064L-215.813 39.3581M-199.462 32.4064H-145.376M-183.672 25.6935H-130.515M-183.672 25.6935L-168.415 19.208M-220.675 19.208H-168.415M-220.675 19.208L-205.057 12.9371M-220.675 19.208H-272.935M-215.813 39.3581L-232.757 46.5615M-215.813 39.3581H-160.766M-145.376 32.4064L-130.515 25.6935M-145.376 32.4064L-160.766 39.3581M-130.515 25.6935L-116.156 19.208M-168.415 19.208H-116.156M-168.415 19.208L-153.664 12.9371M-160.766 39.3581L-176.712 46.5615M-63.8952 19.208L-50.8807 12.9371M-63.8952 19.208H-116.156M-116.156 19.208L-102.273 12.9371M-288.801 46.5615H-232.757M-288.801 46.5615H-344.846M-250.326 54.0302L-232.757 46.5615M-250.326 54.0302L-268.554 61.7794M-250.326 54.0302H-193.248M-232.757 46.5615H-176.712M-344.846 46.5615L-325.91 39.3581M-344.846 46.5615H-377.409M-176.712 46.5615L-193.248 54.0302M-325.91 39.3581H-377.409M-268.554 61.7794L-287.481 69.8251M-268.554 61.7794H-210.404M-193.248 54.0302L-210.404 61.7794M-210.404 61.7794L-228.217 69.8251M-346.744 69.8251L-367.567 78.1859M-346.744 69.8251H-287.481M-346.744 69.8251H-377.409M-287.481 69.8251L-307.146 78.1859M-287.481 69.8251H-228.217M-228.217 69.8251L-246.726 78.1859M-327.595 86.8791L-307.146 78.1859M-327.595 86.8791L-348.874 95.9254M-327.595 86.8791H-265.972M-327.595 86.8791H-377.409M-307.146 78.1859H-367.567M-307.146 78.1859H-246.726M-367.567 78.1859L-377.409 82.1373M-367.567 78.1859H-377.409M-246.726 78.1859L-265.972 86.8791M-348.874 95.9254L-371.036 105.347M-348.874 95.9254H-285.999M-348.874 95.9254H-377.409M-265.972 86.8791L-285.999 95.9254M-285.999 95.9254L-306.857 105.347M-371.036 105.347H-306.857M-371.036 105.347L-377.409 108.056M-371.036 105.347H-377.409M-306.857 105.347L-328.598 115.167M-351.28 125.413L-328.598 115.167M-351.28 125.413L-374.965 136.11M-351.28 125.413H-377.409M-328.598 115.167H-377.409M-377.752 115.167H-377.409M-374.965 136.11H-377.409M-374.965 136.11L-377.409 137.214M-378 137.481L-377.409 137.214M-361.719 32.4064L-343.144 25.6935M-361.719 32.4064H-377.409M-361.719 32.4064L-377.409 38.0755M-343.144 25.6935L-325.194 19.208M-343.144 25.6935H-377.409M-272.935 19.208L-256.449 12.9371M-272.935 19.208H-325.194M-325.194 19.208L-307.841 12.9371M-325.194 19.208H-377.409M1439.49 12.9371H1490.88M1439.49 12.9371H1388.1M1478.29 6.87158L1481.4 8.36949L1490.88 12.9371M1478.29 6.87158H1528.84M1490.88 12.9371H1542.27M1528.84 6.87158L1532.16 8.36949L1533.83 9.12192L1542.27 12.9371M1542.27 12.9371H1593.66M1593.66 12.9371H1645.06M1388.1 12.9371H1336.7M1645.06 12.9371H1696.45M1696.45 12.9371L1680.5 6.87158M1696.45 12.9371H1747.84M1680.5 6.87158H1731.05M1233.92 12.9371H1285.31M1233.92 12.9371H1182.53M1276.08 6.87158L1278.36 8.36949L1279.51 9.12192L1285.31 12.9371M1276.08 6.87158H1326.63M1285.31 12.9371H1336.7M1326.63 6.87158L1336.7 12.9371M1182.53 12.9371H1131.14M1028.35 12.9371H1079.74M1028.35 12.9371H976.961M1073.87 6.87158L1074.59 7.61823L1075.32 8.36949L1076.05 9.12192L1079.74 12.9371M1073.87 6.87158H1124.42M1079.74 12.9371H1131.14M1124.42 6.87158L1131.14 12.9371M976.961 12.9371H925.568M822.784 12.9371H874.176M822.784 12.9371H771.392M871.658 6.87158L874.176 12.9371M871.658 6.87158H922.211M874.176 12.9371H925.568M922.211 6.87158L922.625 7.61823L923.04 8.36949L923.457 9.12192L925.568 12.9371M771.392 12.9371H720M617.216 12.9371H668.608M617.216 12.9371H565.824M669.447 6.87158L668.608 12.9371M669.447 6.87158H720M668.608 12.9371H720M720 6.87158V12.9371M565.824 12.9371H514.431M411.648 12.9371H463.039M411.648 12.9371H360.256M467.236 6.87158L466.2 8.36949L464.101 11.4011L463.039 12.9371M467.236 6.87158H517.789M463.039 12.9371H514.431M517.789 6.87158L517.375 7.61823L516.96 8.36949L516.543 9.12192L514.431 12.9371M360.256 12.9371H308.864M206.08 12.9371H257.472M206.08 12.9371H154.687M265.026 6.87158L263.16 8.36949L262.222 9.12192L257.472 12.9371M265.026 6.87158H315.578M257.472 12.9371H308.864M315.578 6.87158L314.751 7.61823L308.864 12.9371M154.687 12.9371H103.295M0.511223 12.9371H51.9031M0.511223 12.9371H-50.8807M62.8143 6.87158L60.12 8.36949L58.7642 9.12192L51.9031 12.9371M62.8143 6.87158H113.367M51.9031 12.9371H103.295M113.367 6.87158L112.126 7.61823L103.295 12.9371M-50.8807 12.9371H-102.273M-205.057 12.9371H-153.664M-205.057 12.9371H-256.449M-139.397 6.87158L-153.664 12.9371M-139.397 6.87158H-88.8442M-153.664 12.9371H-102.273M-88.8442 6.87158L-92.1592 8.36949L-93.8282 9.12192L-102.273 12.9371M-256.449 12.9371H-307.841M-341.607 6.87158L-359.233 12.9371M-341.607 6.87158H-291.054M-341.607 6.87158H-377.409M-359.233 12.9371H-307.841M-359.233 12.9371L-377.409 19.1926M-359.233 12.9371H-377.409M-291.054 6.87158L-295.199 8.36949L-307.841 12.9371M1731.05 6.87158L1735.2 8.36949L1747.84 12.9371M1747.84 12.9371H1799.23M1799.23 12.9371L1817.41 19.1926M1799.23 12.9371H1817.41M1817.41 302.446V295.046M1817.41 302.446V314.712M1817.41 295.046V276.496M1817.41 314.712V318.377V335.599M1817.41 335.599V357.823M1817.41 158.992V147.293M1817.41 158.992V170.261M1817.41 6.87158V12.9371M1817.41 12.9371V19.1926M1817.41 19.1926L1817.45 19.208H1817.41M1817.41 19.1926V19.208M1817.41 19.208V25.6935M1817.41 25.6935V32.4064M1817.41 32.4064V38.0755M1817.41 38.0755V39.3581M1817.41 39.3581V46.5615M1817.41 46.5615V54.0302M1817.41 54.0302V58.9464M1817.41 58.9464V61.7794M1817.41 61.7794V69.8251M1817.41 69.8251V78.1859M1817.41 78.1859V82.1373M1817.41 82.1373V86.8791M1817.41 86.8791V95.9254M1817.41 95.9254V105.347M1817.41 105.347V108.056M1817.41 108.056V115.167M1817.41 115.167V125.413M1817.41 125.413V136.11M1817.41 136.11V137.214M1817.41 137.214V147.293M1817.41 171.245V184.093M1817.41 171.245V170.261M1817.41 184.093V197.58M1817.41 197.58V208.027M1817.41 208.027V211.753M1817.41 211.753V226.669M1817.41 226.669V242.385M1817.41 242.385V251.605M1817.41 251.605V258.971M1817.41 258.971V276.496M1817.41 357.823V362.53M1817.41 362.53V381.518M1817.41 381.518V406.833M1817.41 406.833V433.942M1817.41 433.942V434.63M1817.41 434.63V463.043M1817.41 463.043V494.361M1817.41 494.361V522.754M1817.41 522.754V528.163M1817.41 528.163V564.755M1817.41 564.755V604.497M1817.41 604.497V632.908M1817.41 632.908V647.813M1817.41 647.813V695.211M1817.41 695.211V747.295M1817.41 747.295V774.535M1817.41 774.535V804.795M1817.41 804.795V805H-377.409V804.795M-377.409 171.245V184.093M-377.409 171.245V170.261M-377.409 170.261V158.992M-377.409 158.992V147.293M-377.409 147.293V137.214M-377.409 137.214V136.11M-377.409 136.11V125.413M-377.409 125.413V115.167M-377.409 115.167V108.056M-377.409 108.056V105.347M-377.409 105.347V95.9254M-377.409 95.9254V86.8791M-377.409 86.8791V82.1373M-377.409 82.1373V78.1859M-377.409 78.1859V69.8251M-377.409 69.8251V61.7794M-377.409 61.7794V58.9464M-377.409 58.9464V54.0302M-377.409 54.0302V46.5615M-377.409 46.5615V39.3581M-377.409 39.3581V38.0755M-377.409 38.0755V32.4064M-377.409 32.4064V25.6935M-377.409 25.6935V19.208M-377.409 19.208H-377.454L-377.409 19.1926M-377.409 19.208V19.1926M-377.409 19.1926V12.9371M-377.409 12.9371V6.87158M-377.409 804.795V774.535M-377.409 774.535V747.295M-377.409 747.295V695.212M-377.409 695.212V647.813M-377.409 647.813V632.908M-377.409 632.908V604.497M-377.409 604.497V564.755M-377.409 564.755V528.163M-377.409 528.163V522.754M-377.409 522.754V494.361M-377.409 494.361V463.043M-377.409 463.043V434.63M-377.409 434.63V433.942M-377.409 433.942V406.833M-377.409 406.833V381.518M-377.409 381.518V362.53M-377.409 362.53V357.823M-377.409 357.823V335.599M-377.409 335.599V314.712M-377.409 314.712V302.446M-377.409 302.446V295.046M-377.409 295.046V276.496M-377.409 276.496V258.971M-377.409 258.971V251.605M-377.409 251.605V242.385M-377.409 242.385V226.669M-377.409 226.669V211.753M-377.409 211.753V208.027M-377.409 208.027V197.58M-377.409 197.58V184.093" stroke="url(#paint0_linear_502_14125)" stroke-opacity="0.2" stroke-width="0.870405" stroke-miterlimit="10" stroke-linecap="round" stroke-linejoin="round"/>
<defs>
<linearGradient id="paint0_linear_502_14125" x1="720" y1="1" x2="720" y2="564.703" gradientUnits="userSpaceOnUse">
<stop stop-color="#FFDFA4"/>
<stop offset="1" stop-color="#085C44"/>
</linearGradient>
</defs>
</svg>
